<svg id="Capa_1" data-name="Capa 1" xmlns="http://www.w3.org/2000/svg" viewBox="0 0 532 59"><defs><style>.cls-1{fill:#04878d;}.cls-2{fill:#212121;}</style></defs><title>Mesa de trabajo 34</title><rect class="cls-1" x="8" y="7.99" width="7.84" height="43.12"/><path class="cls-1" d="M87,51.11H78.56V23.46a8.42,8.42,0,0,0-3.07-7c-2.28-1.62-6.15-2.42-10.16-2.42-4.55,0-9.1,1.21-11.64,3.49s-3.88,5.5-3.88,9.53v24H42V7.88h7.84v3c3.62-2.55,9.5-3.9,15.52-3.9S77,8.29,80.7,10.7a13.35,13.35,0,0,1,6.42,11.82C87,22.65,87,51.11,87,51.11Z"/><path class="cls-2" d="M210.29,16.56l9,16.07H200.88Zm-3.81-8.63L183.21,51.07h7.56L197,39.17h26l6.1,11.9h7.3L214.1,7.93Z"/><path class="cls-2" d="M274.88,52.05c-6.92,0-14-1.33-17.51-4-3.79-2.79-5.62-7.3-5.62-13.27V8h6.54V34.52c0,7.56,6.14,11,15.68,11s15.68-3.31,15.68-10.74V8h7.84V34.94c0,5.83-2,10.34-5.75,13.13-3.4,2.65-10.45,4-17.38,4"/><polygon class="cls-2" points="152.52 7.99 152.52 26.29 121.16 26.29 121.16 7.99 113.32 7.99 113.32 51.11 121.16 51.11 121.16 32.69 152.52 32.69 152.52 51.11 160.36 51.11 160.36 7.99 152.52 7.99"/><path class="cls-2" d="M340.92,52.05c-6.14,0-12.11-1-15.9-3-5-2.71-7.45-6.77-7.45-12.47V32.77h7.84v2.9c0,3.82,2.48,9,16.15,9a30.29,30.29,0,0,0,9.89-1.45c2.74-1,4-2.63,4-4.74a4.43,4.43,0,0,0-1.17-3.3c-.52-.52-1.83-1.18-4.43-1.84-.91-.26-4.17-.79-10.29-1.85-5.86-1.05-10.8-2.1-13-3-4.68-2.11-7-5.4-7-9.62,0-5.4,4.3-11.86,20.7-11.86,16.93,0,21.62,7.65,21.75,14.1v2.24h-7.19l-.13-2.16c-.26-3.26-1.43-5.43-3.79-6.65-2.09-1.08-6.27-1.62-10.58-1.62-12.41,0-13.33,4.2-13.33,5.83,0,1.89.92,3.11,2.88,4.06,1,.54,4.44,1.36,9.53,2.17,8.37,1.36,14.9,2.85,17.91,4.47a10.59,10.59,0,0,1,5.88,9.76c0,3.12-1.31,7.46-7.71,10.3a41,41,0,0,1-14.55,2.61Z"/><path class="cls-1" d="M388,48.41a10.9,10.9,0,0,1-5.26-9.53v-.51h7.31v.7a6.88,6.88,0,0,0,3.21,6.11c2.14,1.42,5.15,2.12,9,2.12s7.13-.67,9.41-2a6.69,6.69,0,0,0,3.41-6.15,6.12,6.12,0,0,0-3.66-6A22.19,22.19,0,0,0,402,31.4h-5.92V26.78h6.17a16.26,16.26,0,0,0,8.3-2,6.21,6.21,0,0,0,3.37-5.64,6.23,6.23,0,0,0-3.17-5.7,18.07,18.07,0,0,0-16.31.09,6.54,6.54,0,0,0-3.12,5.87V20H384V18.86a9.15,9.15,0,0,1,2.39-6.25A15.52,15.52,0,0,1,393,8.43a29.08,29.08,0,0,1,9.66-1.49q8.55,0,13.64,3.11a9.77,9.77,0,0,1,5.1,8.81,7.78,7.78,0,0,1-2.47,5.92,18.88,18.88,0,0,1-6.9,3.83v.26a15.92,15.92,0,0,1,7.72,3.8,9,9,0,0,1,2.88,6.84,9.64,9.64,0,0,1-2.51,6.62,15.71,15.71,0,0,1-6.94,4.31A32.1,32.1,0,0,1,403,51.93Q393.27,51.93,388,48.41Z"/><path class="cls-1" d="M441.24,47.08Q436,42.24,436,30.7q0-8.74,2.3-14a14.79,14.79,0,0,1,6.78-7.51,25,25,0,0,1,11.39-2.28q8.63,0,12.86,3.71a12.37,12.37,0,0,1,4.23,9.79h-7.4a8.41,8.41,0,0,0-2.54-6.59q-2.55-2.28-7.57-2.28-7.06,0-9.78,4.09T443.42,28a16.83,16.83,0,0,1,6.12-3.52,25,25,0,0,1,8-1.23q8.71,0,13.32,4a13.16,13.16,0,0,1,4.6,10.36A12.32,12.32,0,0,1,473,45.18a15.2,15.2,0,0,1-6.69,5,25.33,25.33,0,0,1-9.62,1.74Q446.46,51.93,441.24,47.08ZM465,44.52a9.35,9.35,0,0,0,3-7.16,8.8,8.8,0,0,0-3-6.91q-3-2.65-8.83-2.66t-8.88,2.76a9.08,9.08,0,0,0-3,7.06,8.94,8.94,0,0,0,3,7c2,1.82,5,2.72,8.88,2.72S463,46.38,465,44.52Z"/><path class="cls-1" d="M496.31,49.93A13.56,13.56,0,0,1,489.69,43q-2.29-4.95-2.3-13.56t2.3-13.56a13.54,13.54,0,0,1,6.62-6.94A30.3,30.3,0,0,1,518,9a13.73,13.73,0,0,1,6.66,6.94q2.29,4.9,2.3,13.53T524.7,43A13.69,13.69,0,0,1,518,49.9a30.3,30.3,0,0,1-21.73,0Zm18.45-4.59a10.05,10.05,0,0,0,3.73-5.7,36.72,36.72,0,0,0,1-9.57v-.63a39.19,39.19,0,0,0-1-9.89,10.56,10.56,0,0,0-3.73-5.92q-2.71-2.06-7.57-2.06t-7.56,2a10.11,10.11,0,0,0-3.74,5.71,37.18,37.18,0,0,0-1,9.56v.64a39.69,39.69,0,0,0,1,9.88,10.59,10.59,0,0,0,3.74,5.92c1.81,1.38,4.33,2.06,7.56,2.06S513,46.65,514.76,45.34Z"/></svg>