<svg id="Capa_1" data-name="Capa 1" xmlns="http://www.w3.org/2000/svg" viewBox="0 0 359.07 140.87"><defs><style>.cls-1{fill:#4d4d4d;}</style></defs><title>palabras</title><path class="cls-1" d="M4.45,26.49c-.09.23-.49.19-.9-.18A1.2,1.2,0,0,1,3,25.23S10.15,5.88,35.2,4.12c8.69-.58,15.51,1,20.46,3.84a19.78,19.78,0,0,1,8.2,8.93,17.4,17.4,0,0,1,1,10.78,23.77,23.77,0,0,1-7.57,12.4A32.14,32.14,0,0,1,35,48.28a30.73,30.73,0,0,1-11.06-2.21C20.58,44.63,18,42.6,16.7,40.16a6.29,6.29,0,0,1-.67-5,9.42,9.42,0,0,1,5.26-6,14.15,14.15,0,0,1,5.44-1.26,18.67,18.67,0,0,1,9.14,2c.85-1.21,1.69-2.3,2.45-3.29,0,0-.09-.14-.18-.18-.31-.41-.44-.86-.22-1L41.17,23c.22-.14.67,0,1,.45s.44.81.31,1l-5.13,6.31a16,16,0,0,1,6.29,7c.22.41.09.72-.27.63a1.71,1.71,0,0,1-1-.9,13.1,13.1,0,0,0-5.75-5.91c-3.12,3.88-6.37,7.89-6.37,7.89.26-.13.71.14,1,.59s.4.81.14.9c-4.24,1.76-.36-4.51,3.7-10.1a15.76,15.76,0,0,0-1.88-.68,17.28,17.28,0,0,0-5.61-.67,13.62,13.62,0,0,0-5.17,1.17,8.93,8.93,0,0,0-5,5.73,4.78,4.78,0,0,0,.45,3.83c.89,1.67,2.89,3.2,5.61,4.38A28.89,28.89,0,0,0,34.09,46.7,31.49,31.49,0,0,0,56,38.63a23.61,23.61,0,0,0,7.45-12.14,16,16,0,0,0-.89-9.92,16.21,16.21,0,0,0-6.78-7.3C51.16,6.56,44.6,5.12,36.14,5.7,11.49,7.42,4.49,26.41,4.45,26.49Z"/><path class="cls-1" d="M71.35,33.26a14.06,14.06,0,0,1-4.59,1.35c-3,6.59,9,1,10.39-1.53a.62.62,0,0,1,1-.23c.35.37.35.55.22.82-1.25,2.21-8.2,7.08-11.28,5.32A4.23,4.23,0,0,1,65,34.57a7.64,7.64,0,0,1,1.78-3.34,19.91,19.91,0,0,1,2.9-2.66,5.94,5.94,0,0,1,3-1.35,2.2,2.2,0,0,1,1.61,2.3,4.18,4.18,0,0,1-.45,1.26A5.91,5.91,0,0,1,71.35,33.26Zm-3.16-.72a15.56,15.56,0,0,0,2-.77,6,6,0,0,0,2.23-2.3c.09-.18.13-.31.22-.49a9.69,9.69,0,0,0-1.74,1.08A16.87,16.87,0,0,0,68.19,32.54Z"/><path class="cls-1" d="M77.37,34.34c-.18.18-.72.45-1.07.09s.58-1.21.76-1.39l3.34-4.11a11.16,11.16,0,0,1,1-1c.18-.18.63,0,.94.4s.53.86.36,1l-1.07,1c-.94,1.08-2.19,3-1.7,5.1a4.93,4.93,0,0,1-.22,3.11,3.56,3.56,0,0,1-.85,1,2.94,2.94,0,0,1-1,.5,2.55,2.55,0,0,1-1.74-.23C73.58,38.58,75,36.06,75,36c.13-.22.54-.13.94.23a1.22,1.22,0,0,1,.49,1.08s-.63,1.17-.54,1.22a1.47,1.47,0,0,0,.89,0,1.8,1.8,0,0,0,.9-.41,2,2,0,0,0,.66-.81,3.66,3.66,0,0,0,.23-2.48c0-.59-.4-.63.67-2.62Z"/><path class="cls-1" d="M91.76,32c.18.45,0,.72-.31.63a1.74,1.74,0,0,1-1-.9c-.89-.85-3.07.18-3.88.86a8.84,8.84,0,0,0-3.07,5c1.56-.45,5.61-5.23,5.61-5.23.18-.18.58-.05,1,.36s.49.77.35,1a4.63,4.63,0,0,0-.35,2.66c.17,1.09,6-3.83,6.06-3.88a.58.58,0,0,1,.89,0c.35.41.31.77.13,1-2.94,2.66-4.68,4.24-5.88,4.87-2,1.08-3.61.45-3.57-1.76-1.6,1.53-3.25,2.93-4.23,2.48a2.58,2.58,0,0,1-.89-.68,2.47,2.47,0,0,1-.54-1.89,5.69,5.69,0,0,1,.49-1.72,10.62,10.62,0,0,1,2.77-3.6C87.35,29.52,91,29.43,91.76,32Z"/><path class="cls-1" d="M119.62,41.7a1.55,1.55,0,0,1,1,.85c.22.41.17.72-.18.72-9.45-.81-16.4-.63-21.44.09-3,5.1-6.33,10-7.84,10a5.58,5.58,0,0,1-4.73-2.76,3.75,3.75,0,0,1-.36-2.93A5.62,5.62,0,0,1,88.29,45c1.83-1.31,4.86-2.48,9.49-3.2,1.16-2,2.27-4,3.21-5.68-1.38,1.21-2.81,2.16-3.74,2.07a2.44,2.44,0,0,1-1-.31,2.47,2.47,0,0,1-1.38-2.21,4.28,4.28,0,0,1,.45-1.94,19.79,19.79,0,0,1,3.16-4.92c.18-.23.62,0,1,.32s.54.85.36,1.08A19.2,19.2,0,0,0,96.67,35c-.09.18-.18,1.17.09,1.35,3.07.68,8.33-7,8-7.26v.05c.18-.23.54-.09.94.27s.58.81.45,1l-1,1.76,0,.05s-2.27,4.46-5,9.29A100.47,100.47,0,0,1,119.62,41.7Zm-23,2.07a18.94,18.94,0,0,0-7.13,2.75,5,5,0,0,0-2,2.39,2.35,2.35,0,0,0,.09,1.76,3.25,3.25,0,0,0,2.63,1.13C91.45,51.8,94.08,48.1,96.67,43.77Z"/><path class="cls-1" d="M109.37,28.93c.18-.18.62,0,1,.36s.49.86.36,1.08c-3.39,3.93-3.66,6.63-3.35,6.91.54.45,4-1.76,6.38-5.87l.13-.18c.18-.18.63,0,1,.36s.54.86.36,1a2,2,0,0,1-.31.32c-.58.72-3.93,5.5-.58,3.87a15.19,15.19,0,0,0,4.94-4.06c.18-.22.36-.67.76-.27s.14.63,0,.82c-1.21,1.57-2.9,3.69-4.68,4.55-1.56.77-3.52.41-3.79-1.53-4.41,3.83-8,3.11-5.57-2.39A20.31,20.31,0,0,1,109.37,28.93Z"/><path class="cls-1" d="M120.47,30.28c.13-.22.58-.13.93.23s.58.86.45,1.08l-1.11,2c2.4-2,5-4,6-3.74h.09a1.68,1.68,0,0,1,1.25,2.39,13.51,13.51,0,0,1-.76,1.76c-.58,1.17-1.25,2.48-1.25,2.48,1.43,1,6.24-3.34,6.29-3.34.13-.18.62-.77,1-.36s.13.45,0,.68c0,0-4.86,5.81-7.18,4.28-2-1.31-1-3.29-.18-5.05a10.3,10.3,0,0,0,.49-1.08C123.9,33,118,38.72,117.79,38.9s-.53,0-.89-.27-.58-.86-.44-1.08Z"/><path class="cls-1" d="M134,30.6c.18-.14.62,0,1,.45s.45.86.27,1a2.25,2.25,0,0,0-.36.27A9.31,9.31,0,0,0,132.73,36a4.92,4.92,0,0,0-.32,2.71,1.36,1.36,0,0,0,.85,0,3.62,3.62,0,0,0,1.34-.86,8.12,8.12,0,0,0,1.74-2.39,9.67,9.67,0,0,0,.71-1.85,6.44,6.44,0,0,1-1.74-2.3,4.87,4.87,0,0,1-.44-2.21c.09-.63.35-1.08.89-1.17a1.86,1.86,0,0,1,1.11.22,3.31,3.31,0,0,1,1.38,1.54,4.78,4.78,0,0,1,.49,1.62,7,7,0,0,1,0,1.94,5.62,5.62,0,0,0,4-.54c.22-.14.44-.32.8.09s.27.72,0,.86c-2.09,1.17-3.65,1.35-5,.85a8.22,8.22,0,0,1-.85,2.26,8.64,8.64,0,0,1-1.83,2.52,4.13,4.13,0,0,1-1.51,1,2.14,2.14,0,0,1-1.74-.18,3.14,3.14,0,0,1-.89-.72l-.27-.27a5.23,5.23,0,0,1-.18-4.29,9.56,9.56,0,0,1,2.32-3.87C133.75,30.83,133.89,30.69,134,30.6Zm3.25,1.94a7.65,7.65,0,0,0,0-2,3.76,3.76,0,0,0-.22-1h0c0-.05-.17-.05-.31,0s-.4.27-.44.67a2.73,2.73,0,0,0,.26,1.4A2.4,2.4,0,0,0,137.27,32.54Z"/><path class="cls-1" d="M149.4,38s1.29.14,1.07-2.34c-.05-.23.4-.41.89-.41s1,.32,1,.54a2.63,2.63,0,0,1-2.94,3.16c-.49,0-.93-.27-1-.54S148.86,37.91,149.4,38Z"/><path class="cls-1" d="M168.34,33.89c-.13.27-.53.18-.89-.18s-.62-.86-.54-1.08c.05,0,.76-1.58.58-1.58-.84,0-2.67,1.17-4.05,2.75a10.3,10.3,0,0,0-1.34,1.85,4.65,4.65,0,0,0-.53,1.76,1.34,1.34,0,0,0,.31,1c1.87,1.67,11-5.28,11.05-5.28s.58-.58.89-.49c.36.41.49.86.31,1,0,0-9.67,8.34-12.65,5.63a3.62,3.62,0,0,1-1.34-2.88,4.41,4.41,0,0,1,.58-2.08,12.14,12.14,0,0,1,1.38-1.94c1.47-1.67,3.48-3,4.5-2.93C170.39,29.61,168.34,33.89,168.34,33.89Z"/><path class="cls-1" d="M174.89,30.6c.18-.14.63,0,1,.45s.45.86.27,1a2.81,2.81,0,0,0-.36.27A9.31,9.31,0,0,0,173.6,36a4.89,4.89,0,0,0-.31,2.71,1.32,1.32,0,0,0,.84,0,3.47,3.47,0,0,0,1.34-.86,7.78,7.78,0,0,0,1.74-2.39,9.05,9.05,0,0,0,.71-1.85,6.29,6.29,0,0,1-1.73-2.3,4.89,4.89,0,0,1-.45-2.21c.09-.63.36-1.08.89-1.17a1.9,1.9,0,0,1,1.12.22,3.31,3.31,0,0,1,1.38,1.54,5,5,0,0,1,.49,1.62,7,7,0,0,1,0,1.94,5.59,5.59,0,0,0,4-.54c.22-.14.44-.32.8.09s.27.72,0,.86c-2.1,1.17-3.66,1.35-5,.85a8.22,8.22,0,0,1-.85,2.26,8.46,8.46,0,0,1-1.83,2.52,4.13,4.13,0,0,1-1.51,1,2.14,2.14,0,0,1-1.74-.18,3.28,3.28,0,0,1-.89-.72l-.27-.27a5.23,5.23,0,0,1-.18-4.29,9.56,9.56,0,0,1,2.32-3.87C174.63,30.83,174.76,30.69,174.89,30.6Zm3.26,1.94a7.65,7.65,0,0,0,0-2,4.15,4.15,0,0,0-.23-1H178a.33.33,0,0,0-.31,0c-.27,0-.4.27-.45.67a2.85,2.85,0,0,0,.27,1.4A2.21,2.21,0,0,0,178.15,32.54Z"/><path class="cls-1" d="M186.35,28c.13-.23.58-.09.93.27s.58.86.45,1.08L186.08,32c1.56-.76,3.7-1.49,4.59-.36.4.45.27,1.49.85,1.54a10.88,10.88,0,0,0,3.3-.5c.26-.09.53-.32.8.09s.13.59-.14.63a15.2,15.2,0,0,1-4.36.77c-1.16-.09-1.52-.41-2.5-1.58-.67-.81-4.63,2.75-4.63,2.75s-2.41,4-2.63,4.42c-.14.23-.58.09-.94-.27s-.58-.86-.45-1.08Z"/><path class="cls-1" d="M202.3,32c.18.45,0,.72-.31.63a1.74,1.74,0,0,1-1-.9c-.89-.85-3.07.18-3.88.86a8.84,8.84,0,0,0-3.07,5c1.56-.45,5.61-5.23,5.61-5.23.18-.18.58-.05,1,.36s.49.77.35,1a4.63,4.63,0,0,0-.35,2.66c.17,1.09,6-3.83,6.06-3.88a.58.58,0,0,1,.89,0c.36.41.31.77.13,1-2.94,2.66-4.68,4.24-5.88,4.87-2.05,1.08-3.61.45-3.57-1.76-1.6,1.53-3.25,2.93-4.23,2.48a2.68,2.68,0,0,1-.89-.68,2.47,2.47,0,0,1-.54-1.89,5.69,5.69,0,0,1,.49-1.72,10.62,10.62,0,0,1,2.77-3.6C197.89,29.52,201.55,29.43,202.3,32Z"/><path class="cls-1" d="M206.9,33.94c-.18.18-.63,0-1-.41s-.49-.86-.27-1c0,0,2.72-2.43,4.86-2.88a1.68,1.68,0,0,1,1.64.54,2.24,2.24,0,0,1,.72,1.58,2,2,0,0,1-.27,1.17c-.58,1.35-2.23,3.07-5.39,4.42l0,.09c1.74-.18,5.89-.72,8.25-4.83.13-.22.27-.49.62-.13s.54.27.4.5a12.1,12.1,0,0,1-9,6.08,6.92,6.92,0,0,1-2.05,5.69A7,7,0,0,1,201.37,47a2.47,2.47,0,0,1-1.43-.22,2.79,2.79,0,0,1-1.47-1.63,3,3,0,0,1,.22-2.07c1.3-2.75,6.33-5,7.36-5.5a5,5,0,0,0-.31-1c-.14-.27-.14-.54.09-.63,3.16-1.31,4.81-3,5.39-4.24a3,3,0,0,0,.13-.45C209.39,31.73,206.94,33.94,206.9,33.94Zm-2.68,9.38a6.18,6.18,0,0,0,1.87-3.74c-1.78.9-5,2.7-6,4.78a2.6,2.6,0,0,0-.31,1,2.13,2.13,0,0,0,.58,0A6.74,6.74,0,0,0,204.22,43.32Z"/><path class="cls-1" d="M217,30.6c.18-.14.62,0,1,.45s.45.86.27,1a2.25,2.25,0,0,0-.36.27A9.19,9.19,0,0,0,215.68,36a4.92,4.92,0,0,0-.32,2.71,1.35,1.35,0,0,0,.85,0,3.62,3.62,0,0,0,1.34-.86,8.12,8.12,0,0,0,1.74-2.39,9.67,9.67,0,0,0,.71-1.85,6.44,6.44,0,0,1-1.74-2.3,4.87,4.87,0,0,1-.44-2.21c.09-.63.35-1.08.89-1.17a1.87,1.87,0,0,1,1.11.22,3.31,3.31,0,0,1,1.38,1.54,4.78,4.78,0,0,1,.49,1.62,7,7,0,0,1,0,1.94,5.59,5.59,0,0,0,4-.54c.23-.14.45-.32.81.09s.26.72,0,.86c-2.09,1.17-3.65,1.35-5,.85a8.22,8.22,0,0,1-.85,2.26,8.64,8.64,0,0,1-1.83,2.52,4.13,4.13,0,0,1-1.51,1,2.14,2.14,0,0,1-1.74-.18,3.14,3.14,0,0,1-.89-.72l-.27-.27a5.19,5.19,0,0,1-.18-4.29,9.56,9.56,0,0,1,2.32-3.87C216.7,30.83,216.84,30.69,217,30.6Zm3.25,1.94a7.65,7.65,0,0,0,0-2,3.76,3.76,0,0,0-.22-1h0c0-.05-.17-.05-.31,0s-.4.27-.44.67a2.73,2.73,0,0,0,.26,1.4A2.4,2.4,0,0,0,220.22,32.54Z"/><path class="cls-1" d="M227,30.28c.14-.22.58-.13.94.23s.58.86.44,1.08l-1.11,2c2.41-2,5-4,6-3.74h.09a1.68,1.68,0,0,1,1.24,2.39,13.28,13.28,0,0,1-.75,1.76c-.58,1.17-1.25,2.48-1.25,2.48,1.42,1,6.24-3.34,6.28-3.34.14-.18.63-.77,1-.36s.14.45,0,.68c0,0-4.86,5.81-7.18,4.28-2-1.31-1-3.29-.18-5.05a10.3,10.3,0,0,0,.49-1.08c-2.54,1.35-8.46,7.08-8.64,7.26s-.54,0-.89-.27-.58-.86-.45-1.08Z"/><path class="cls-1" d="M277.19,41.7a1.54,1.54,0,0,1,1,.85c.22.41.18.72-.18.72-9.45-.81-16.4-.63-21.44.09-3,5.1-6.32,10-7.84,10A5.61,5.61,0,0,1,244,50.62a3.75,3.75,0,0,1-.35-2.93A5.59,5.59,0,0,1,245.85,45c1.83-1.31,4.86-2.48,9.5-3.2,1.15-2,2.27-4,3.21-5.68-1.39,1.21-2.81,2.16-3.75,2.07a2.39,2.39,0,0,1-1-.31,2.47,2.47,0,0,1-1.39-2.21,4.42,4.42,0,0,1,.45-1.94A20.08,20.08,0,0,1,256,28.84c.18-.23.63,0,1,.32s.54.85.36,1.08A19.2,19.2,0,0,0,254.23,35c-.09.18-.18,1.17.09,1.35,3.08.68,8.34-7,8-7.26v.05c.18-.23.53-.09.93.27s.58.81.45,1l-1,1.76,0,.05s-2.28,4.46-5,9.29A100.57,100.57,0,0,1,277.19,41.7Zm-23,2.07a19,19,0,0,0-7.13,2.75,5.1,5.1,0,0,0-2,2.39,2.35,2.35,0,0,0,.09,1.76,3.26,3.26,0,0,0,2.63,1.13C249,51.8,251.65,48.1,254.23,43.77Z"/><path class="cls-1" d="M281.69,28c.13-.23.58-.09.93.27s.58.86.45,1.08L281.42,32c1.56-.76,3.7-1.49,4.59-.36.4.45.27,1.49.85,1.54a10.84,10.84,0,0,0,3.3-.5c.26-.09.53-.32.8.09s.13.59-.13.63a15.32,15.32,0,0,1-4.37.77c-1.16-.09-1.52-.41-2.5-1.58-.67-.81-4.63,2.75-4.63,2.75s-2.41,4-2.63,4.42c-.14.23-.58.09-.94-.27s-.58-.86-.45-1.08Z"/><path class="cls-1" d="M295.1,33.26a14,14,0,0,1-4.59,1.35c-3,6.59,9,1,10.39-1.53a.62.62,0,0,1,1-.23c.36.37.36.55.22.82-1.25,2.21-8.2,7.08-11.27,5.32a4.22,4.22,0,0,1-2.1-4.42,7.64,7.64,0,0,1,1.78-3.34,20.43,20.43,0,0,1,2.9-2.66,6,6,0,0,1,3-1.35,2.18,2.18,0,0,1,1.6,2.3,3.88,3.88,0,0,1-.44,1.26A5.93,5.93,0,0,1,295.1,33.26Zm-3.16-.72a16.24,16.24,0,0,0,2-.77,6,6,0,0,0,2.22-2.3c.09-.18.14-.31.23-.49a9.69,9.69,0,0,0-1.74,1.08A16.92,16.92,0,0,0,291.94,32.54Z"/><path class="cls-1" d="M324.39,41.7a1.54,1.54,0,0,1,1,.85c.23.41.18.72-.17.72-9.45-.81-16.41-.63-21.44.09-3,5.1-6.33,10-7.85,10a5.58,5.58,0,0,1-4.72-2.76,3.75,3.75,0,0,1-.36-2.93A5.56,5.56,0,0,1,293.06,45c1.82-1.31,4.85-2.48,9.49-3.2,1-1.67,2.54-4.55,3.39-6.09-1.39,1.44-4.24,2.8-5.22,2.57-1.6-.36-1.92-1.13-1.65-2.52.58-3.12,5.44-7.22,8.29-3.66,1-1.17,1.65-2.07,1.65-2.07.13-.23.54-.09.89.22a1.24,1.24,0,0,1,.49,1.09l-.49.85,0,.05s-2.27,4.46-5,9.29A100.47,100.47,0,0,1,324.39,41.7Zm-23,2.07a19,19,0,0,0-7.13,2.75,5.07,5.07,0,0,0-2,2.39,2.25,2.25,0,0,0,.09,1.76A3.25,3.25,0,0,0,295,51.8C296.22,51.8,298.85,48.1,301.43,43.77Zm5.31-10.87c-2-2.66-7.89,4.33-5.66,4.46C302.28,37.46,305.62,35.24,306.74,32.9Z"/><path class="cls-1" d="M319.57,32c.18.45.05.72-.31.63a1.74,1.74,0,0,1-1-.9c-.89-.85-3.07.18-3.88.86a8.84,8.84,0,0,0-3.07,5c1.56-.45,5.62-5.23,5.62-5.23.17-.18.58-.05,1,.36s.49.77.35,1a4.63,4.63,0,0,0-.35,2.66c.17,1.09,6-3.83,6.06-3.88a.58.58,0,0,1,.89,0c.36.41.31.77.13,1-2.94,2.66-4.68,4.24-5.88,4.87-2.05,1.08-3.61.45-3.57-1.76-1.6,1.53-3.25,2.93-4.23,2.48a2.68,2.68,0,0,1-.89-.68,2.47,2.47,0,0,1-.54-1.89,5.69,5.69,0,0,1,.49-1.72,10.62,10.62,0,0,1,2.77-3.6C315.16,29.52,318.82,29.43,319.57,32Z"/><path class="cls-1" d="M336.38,33c.09-.14.27-.41.62-.14s.58.59.49.73c-1.11,1.94-10.11,9.29-12.7,10.6-1.6.85-4.28,1.66-5.39-.14-2.63-3.74,14.53-28.5,14.93-28.6A9.81,9.81,0,0,1,339,11.57a2.16,2.16,0,0,1,1.42,0A2.13,2.13,0,0,1,342,13a5,5,0,0,1-.8,3.29c-2.86,5.77-14.76,14.93-14.8,15s-.09,0-.18,0c-3.25,5.72-5.57,10.91-4.95,12.26.41.59,2.32-.13,2.77-.36C326.53,41.83,335.26,34.88,336.38,33Zm-.8-16.6s-3.61,5.32-7.22,11.28c3.69-3.11,9.62-8.44,11.54-12.27a5,5,0,0,0,.76-2.89,4.17,4.17,0,0,0-.58.09A10,10,0,0,0,335.58,16.39Z"/><path class="cls-1" d="M337.76,30.6c.18-.14.63,0,1,.45s.45.86.27,1a2.81,2.81,0,0,0-.36.27A9.31,9.31,0,0,0,336.47,36a4.79,4.79,0,0,0-.31,2.71,1.32,1.32,0,0,0,.84,0,3.62,3.62,0,0,0,1.34-.86,8.12,8.12,0,0,0,1.74-2.39,9.67,9.67,0,0,0,.71-1.85,6.44,6.44,0,0,1-1.74-2.3,4.87,4.87,0,0,1-.44-2.21c.09-.63.35-1.08.89-1.17a1.86,1.86,0,0,1,1.11.22A3.31,3.31,0,0,1,342,29.7a4.79,4.79,0,0,1,.5,1.62,7.86,7.86,0,0,1,0,1.94,5.59,5.59,0,0,0,4-.54c.22-.14.44-.32.8.09s.27.72,0,.86c-2.09,1.17-3.65,1.35-5,.85a8.22,8.22,0,0,1-.85,2.26,8.64,8.64,0,0,1-1.83,2.52,4.13,4.13,0,0,1-1.51,1,2.14,2.14,0,0,1-1.74-.18,3.28,3.28,0,0,1-.89-.72l-.27-.27a5.23,5.23,0,0,1-.18-4.29,9.56,9.56,0,0,1,2.32-3.87C337.49,30.83,337.63,30.69,337.76,30.6ZM341,32.54a7.65,7.65,0,0,0,0-2,3.76,3.76,0,0,0-.22-1h0a.35.35,0,0,0-.32,0c-.26,0-.4.27-.44.67a2.65,2.65,0,0,0,.27,1.4A2.28,2.28,0,0,0,341,32.54Z"/><path class="cls-1" d="M350.46,36.24a1.06,1.06,0,0,1,1.07,1.08,1.09,1.09,0,0,1-2.18,0A1.07,1.07,0,0,1,350.46,36.24Z"/><path class="cls-1" d="M312.57,87.35,325,93.54l0,5.56-12.16,4.78L300.1,98.76l0-5.34ZM300.1,100,300,127l12.68,5,12.16-4.7.12-27L312.77,105Zm7.15-17.21A26.46,26.46,0,0,0,304,80.1,18.42,18.42,0,0,0,302.35,79a8.67,8.67,0,0,0-1.63-.75,2.86,2.86,0,0,0-.84-.16.51.51,0,0,0-.21,0,.42.42,0,0,0-.2.1,1.56,1.56,0,0,0-.24.32,2.21,2.21,0,0,0-.32,1,1.65,1.65,0,0,0,.39.9,5.81,5.81,0,0,0,1.21,1.11,12,12,0,0,0,1.66,1A22.86,22.86,0,0,0,306,84.17a21.48,21.48,0,0,0,3.15.78l-.48-.62A20.44,20.44,0,0,0,307.25,82.79Zm6.89-9.34a2.18,2.18,0,0,0-.43-1,.39.39,0,0,0-.2-.11,1,1,0,0,0-.3,0h-.1a2,2,0,0,0-1,.25,1.57,1.57,0,0,0-.56.8,5.68,5.68,0,0,0-.31,1.62,12.6,12.6,0,0,0,0,1.94,24.52,24.52,0,0,0,.68,4.12,22.34,22.34,0,0,0,1,3.08l.27-.73c.24-.72.42-1.46.56-2a26.62,26.62,0,0,0,.59-4.14,17.12,17.12,0,0,0,0-2A8.56,8.56,0,0,0,314.14,73.45Zm12.18,4.91a.35.35,0,0,0-.17-.1.54.54,0,0,0-.24,0,3.11,3.11,0,0,0-.83.15,9,9,0,0,0-1.64.74,15.33,15.33,0,0,0-1.7,1.07,26.5,26.5,0,0,0-3.24,2.67,19.92,19.92,0,0,0-1.45,1.52c-.19.23-.35.43-.48.62a22.74,22.74,0,0,0,3.15-.75,23.86,23.86,0,0,0,3.86-1.56,12.82,12.82,0,0,0,1.68-1,5.87,5.87,0,0,0,1.22-1.11,1.6,1.6,0,0,0,.39-.88,2,2,0,0,0-.31-1A1.19,1.19,0,0,0,326.32,78.36Zm1.38,47.88,9.59-3.71.12-27-9.58,3.71Zm-39.61-3.94,9,3.57.13-27-9-3.57Zm52.79-35.83,0,6.37-13,5.12,0-6.34-8.82-4.32-1.14.06c-.4,0-.8,0-1.2,0a11.43,11.43,0,0,1-1.2,0h-.2a1.53,1.53,0,0,1-.47-.16,1.67,1.67,0,0,1-.7-.65l-.23.17a1.86,1.86,0,0,1-.9.34h-.15a1.63,1.63,0,0,1-.94-.29,1.48,1.48,0,0,1-.33-.27,1.66,1.66,0,0,1-1.17.82l-.19,0c-.4,0-.8,0-1.23,0s-.8,0-1.21,0c-.59,0-1.12-.06-1.61-.11l-8.94,4.28,0,6.11-12.39-5,0-6.37,10.21-3.73a5.24,5.24,0,0,1-.3-.51,5.51,5.51,0,0,1-.59-2.07,5.61,5.61,0,0,1,.19-2.07,5.76,5.76,0,0,1,.31-.88c.06-.15.11-.27.19-.43l.12-.22.07-.13a5.94,5.94,0,0,1,1.37-1.63,5,5,0,0,1,2.22-1.06,5.32,5.32,0,0,1,1.07-.1,6.56,6.56,0,0,1,1.07.1,7.77,7.77,0,0,1,1.64.52,14,14,0,0,1,4.25,3.22c.23.25.46.51.68.78l.12,0-.07-.21a16.31,16.31,0,0,1-.48-2.58,9.12,9.12,0,0,1,.2-3,6.2,6.2,0,0,1,.73-1.76,5.68,5.68,0,0,1,1.44-1.6,5.85,5.85,0,0,1,1.87-.93,8.43,8.43,0,0,1,.9-.2l.47-.06.24,0h.42a6.18,6.18,0,0,1,1.85.3,5.08,5.08,0,0,1,2.07,1.34A5.54,5.54,0,0,1,318.23,71a7.32,7.32,0,0,1,.43,1.67,13.83,13.83,0,0,1-.5,5.28l.28.1c.23-.25.45-.5.68-.74a13.93,13.93,0,0,1,4.27-3.19,7.26,7.26,0,0,1,1.67-.51,5.61,5.61,0,0,1,1.07-.1,4.83,4.83,0,0,1,1.08.12,5.07,5.07,0,0,1,2.21,1.07,6,6,0,0,1,1.34,1.64l.09.18.1.19a3.89,3.89,0,0,1,.19.42,7.16,7.16,0,0,1,.3.89,5.84,5.84,0,0,1,.17,2.08,5.62,5.62,0,0,1-.62,2.06c-.09.17-.19.33-.29.5Zm-30-1a1.65,1.65,0,0,0-.08-.42,4.17,4.17,0,0,0-.23-.6c-.18-.4-.38-.76-.54-1-.4-.69-.8-1.32-1.21-1.92a29.89,29.89,0,0,0-2.84-3.6,12.94,12.94,0,0,0-3.94-3,6.22,6.22,0,0,0-1.42-.46,7.41,7.41,0,0,0-.9-.09,4.27,4.27,0,0,0-2.68.94,5,5,0,0,0-1.14,1.37l-.06.1-.11.21c-.07.14-.11.24-.17.37a6.18,6.18,0,0,0-.26.76,4.86,4.86,0,0,0-.16,1.74,4.53,4.53,0,0,0,.5,1.71,5.14,5.14,0,0,0,.94,1.31,8,8,0,0,0,2.23,1.58,14.49,14.49,0,0,0,2.28.89,26.78,26.78,0,0,0,4.52.85c.67.08,1.38.13,2.25.18.38,0,.77,0,1.15,0s.77,0,1.15,0h.09a.49.49,0,0,0,.19-.06.78.78,0,0,0,.35-.33A1,1,0,0,0,310.87,85.47ZM315.66,82a29.78,29.78,0,0,0,1.56-4.31,13,13,0,0,0,.48-4.94,6.43,6.43,0,0,0-.36-1.45,4.56,4.56,0,0,0-.94-1.51,4.15,4.15,0,0,0-1.67-1.09,4.87,4.87,0,0,0-1.54-.24,1.61,1.61,0,0,0-.22,0h-.36l-.4,0a4.92,4.92,0,0,0-.78.18,4.72,4.72,0,0,0-2.76,2.1,5.24,5.24,0,0,0-.61,1.49,8,8,0,0,0-.18,2.73,15.11,15.11,0,0,0,.45,2.41A26.74,26.74,0,0,0,310,81.77c.29.6.61,1.24,1,2a20.09,20.09,0,0,0,1.22,2l.05.06a.58.58,0,0,0,.16.14.73.73,0,0,0,.41.12h.06a.91.91,0,0,0,.44-.17,1.54,1.54,0,0,0,.32-.29,5,5,0,0,0,.39-.51c.19-.29.37-.6.59-1C315,83.37,315.37,82.7,315.66,82Zm14.85-3.79a6.81,6.81,0,0,0-.26-.76l-.16-.36L330,77l-.09-.17a5.08,5.08,0,0,0-1.12-1.37,4.1,4.1,0,0,0-1.79-.87,4.24,4.24,0,0,0-.88-.09,4.63,4.63,0,0,0-.9.08,6.66,6.66,0,0,0-1.45.44,13.22,13.22,0,0,0-4,3A29.67,29.67,0,0,0,317,81.53c-.41.59-.81,1.22-1.22,1.91a11.63,11.63,0,0,0-.55,1,4.17,4.17,0,0,0-.24.6,2,2,0,0,0-.09.46A1,1,0,0,0,315,86a.82.82,0,0,0,.33.31.71.71,0,0,0,.2.06h.1c.35,0,.72,0,1.12,0s.78,0,1.16,0c.87,0,1.58-.08,2.25-.15a26.24,26.24,0,0,0,4.54-.81,14.35,14.35,0,0,0,2.28-.87A7.81,7.81,0,0,0,329.18,83a5.14,5.14,0,0,0,.95-1.3,4.52,4.52,0,0,0,.52-1.7A4.93,4.93,0,0,0,330.51,78.25Z"/><path class="cls-1" d="M49.56,87.71c1.3-.14,2.61-.29,3.91-.38h-.74A18.43,18.43,0,0,0,49.56,87.71Z"/><path class="cls-1" d="M97.21,94.88a6.14,6.14,0,0,0-3.19-4c-.22-.1-.43-.19-.65-.27a6.88,6.88,0,0,0-1-.29,11.36,11.36,0,0,0-6.65.83.2.2,0,0,1-.12-.08.24.24,0,0,1,0-.07c0-.17,0-.34.07-.5.07-.54.16-1.07.21-1.61a12.91,12.91,0,0,0-.06-2.71v0A3.25,3.25,0,0,0,85.55,85a.34.34,0,0,0,0-.1h0a4.88,4.88,0,0,0-.42-.77q-.15-.24-.33-.48a5.13,5.13,0,0,0-1.17-1.06l-.23-.17a4.13,4.13,0,0,0-1-.7q-.51-.3-1.08-.6a.27.27,0,0,0-.1-.08l-.5-.22a34.62,34.62,0,0,0-5.19-1.89.14.14,0,0,0-.11,0l-.13,0A82.1,82.1,0,0,0,54,76.31a95.05,95.05,0,0,0-13,.86l-.07,0a6.58,6.58,0,0,0-1.47-.05c-.59.11-1.15.33-1.73.49l-.39.09-.43.07a14.68,14.68,0,0,0-2,.5l-.46.11-.48.14a36.89,36.89,0,0,0-6.57,2.24,10.2,10.2,0,0,0-2.64,1.51c-1.66,1.19-2.59,2.51-2.59,3.89h0a43.56,43.56,0,0,0,2.09,14,13,13,0,0,0,.46,1.55,21.22,21.22,0,0,0,.74,2.12c.15.32.32.63.5.94.22.52.46,1,.7,1.57.06.16.12.31.19.47.15.37.31.75.47,1.12a.66.66,0,0,0-.2.06c-.94.49-2.08.67-3.07,1.07a11,11,0,0,0-2.31,1.55,12.15,12.15,0,0,0-2.63,1.56,4.42,4.42,0,0,0-1.68,3.89A3.23,3.23,0,0,0,18.67,118a11.17,11.17,0,0,0,.74,1,6.37,6.37,0,0,0,1.45,1.75,15.68,15.68,0,0,0,1.52,1.42A42.63,42.63,0,0,0,26,124.81a29.71,29.71,0,0,0,4.19,2.53c1.47.66,3,1.19,4.5,1.81a17,17,0,0,0,4.39,1.09c1.8.23,3.57.6,5.37.81l5.21.59a53.46,53.46,0,0,0,10,.24,76.54,76.54,0,0,0,9.8-1.11c1.62-.33,3.16-.94,4.76-1.31.69-.16,1.38-.25,2.07-.39a8.23,8.23,0,0,0,1.94-.87c1.32-.61,2.8-.91,4.11-1.54.57-.28,1.06-.69,1.63-1a10.27,10.27,0,0,0,1.9-1.26c2.38-1.93,5.22-4.16,6.58-7l0-.06a2.2,2.2,0,0,0,.45-2v0a7.51,7.51,0,0,0,0-1.58c-.21-1.11-1.29-1.55-2.19-2.09.36-.32.72-.65,1.06-1,.53-.53,1.07-1.07,1.59-1.62a16,16,0,0,0,1.3-1.17,11.67,11.67,0,0,0,2.92-6.27q.11-.41.18-.81A11.84,11.84,0,0,0,97.21,94.88Zm-.21,6.2a15.63,15.63,0,0,1-2.09,5,17.22,17.22,0,0,1-2.13,2.61l-1,.79c-1.21,1-2.22,2.21-3.49,3.11a.37.37,0,0,0-.17.31,22.45,22.45,0,0,1-6.63,3.33,34.93,34.93,0,0,1-5.14,1.13,1.27,1.27,0,0,1-.6.15H75.2l-.18,0-.39,0,0,0,0,0h-.1l-.43.26-.17.12h0c.15-.09,0,0-.07.07h0a1.07,1.07,0,0,1-.14.16l-.08.13h0l0,0-.12.09a1,1,0,0,1-.36.26l-.65.48c-.55.43-1,1-1.57,1.36l-.28.18a19.56,19.56,0,0,1-4.1,1.69c-.72.24-1.44.49-2.18.71-.93.19-1.85.44-2.79.61-.75.08-1.5.09-2.25.16s-1.49-.08-2.23-.05c-1.29.05-2.57,0-3.86.06l-.68,0c-.4-.06-.79-.12-1.19-.15-1.38-.11-2.72-.41-4.08-.65-.25-.09-.49-.19-.74-.26l-.7-.19a.23.23,0,0,0-.21-.09h-.07l-1.29-.31a15.17,15.17,0,0,1-2-.71c-.26-.15-.52-.3-.77-.46-1.15-.72-2.26-1.5-3.4-2.22a16.81,16.81,0,0,1-3.51-2.58,35.47,35.47,0,0,1-2.66-3.65c-.51-.73-1-1.44-1.57-2.15-.83-1.7-1.55-3.46-2.49-5.09a32.67,32.67,0,0,1-1.89-4.23,35.69,35.69,0,0,1-1.51-4c-.14-.53-.26-1.06-.37-1.59-.35-1.89-.66-3.78-.9-5.68a.19.19,0,0,0,0-.08c0-.43,0-.88,0-1.31a8.74,8.74,0,0,0,.67.71,4.87,4.87,0,0,0,1.19,1.25,7.73,7.73,0,0,0,1.76.91l.36.16a.26.26,0,0,0,.16.07c.63.26,1.25.53,1.9.73.16.05.32.08.48.12a45,45,0,0,0,4.82,1.44,7.78,7.78,0,0,0,1.14.33c.33.06.65.1,1,.13a86.28,86.28,0,0,0,14.12,1.56c1,.08,2.08.13,3.13.14a11.54,11.54,0,0,0,1.17-.1c.85,0,1.71,0,2.55,0h0a16.53,16.53,0,0,0,2,0,6.85,6.85,0,0,0,1-.16,17.88,17.88,0,0,0,2.06-.17l.16,0,.74,0a4.56,4.56,0,0,0,.9-.08l.18-.06c.52,0,1-.07,1.57-.14s.95-.17,1.41-.27a60.58,60.58,0,0,0,8.22-1.75,12.25,12.25,0,0,0,2-.62l.37-.16c.25-.09.51-.18.75-.28l.19-.07L79.16,92a3.43,3.43,0,0,0-.52-.82l-.07-.07-.06,0V91l0,0a3.59,3.59,0,0,0-.35-.32l-.27-.18,0,.34a2.3,2.3,0,0,0-.14-.45l0-.06-.06,0a14.66,14.66,0,0,0-1.46-.78l-.23-.11L75.15,89a7.47,7.47,0,0,1,.52.7h0l.11.16h0a.05.05,0,0,1,0,0,.22.22,0,0,1,0,.11,0,0,0,0,1,0,0,.19.19,0,0,1,0,.08v0a.36.36,0,0,1-.06.2.48.48,0,0,1-.8,0c-.09-.15-.19-.28-.29-.42h0l-.06-.08-.24-.29h0l-.11-.11,0,0h0l0,0-.09-.1h0L73.85,89h0l-.06,0-.33-.28h0l-.16-.11h0l-.06,0-.21-.15-.22-.14-.12-.08h0l0,0h0a10.22,10.22,0,0,0-2.35-1h0l-.14,0h0l-.63-.17h-.09l-.66-.14h-.06l-.28,0h0l-.58-.1-.25,0-.17,0h.07l-.59-.08h0l-1-.12-.25,0-.74-.09-.48,0L63.57,86a.25.25,0,0,1-.15-.05l0,0a.3.3,0,0,1-.08-.08l0-.06,0-.1h0a.37.37,0,0,1,0-.11.13.13,0,0,1,0-.06.19.19,0,0,1,0-.07v0a.47.47,0,0,1,.23-.25c-.32,0-.63-.07-1-.09l0-.11h-.13a7.45,7.45,0,0,0-1.91.21,10.45,10.45,0,0,1,4.68.1l2.07.26.46.07.65.1h0l1.05.2a14.08,14.08,0,0,1,3.06,1l.25.13a8,8,0,0,1,.86.5l.15,0,.14-.37c-.76-.31-1.59-.6-2.59-.93l-.25-.08-1.27-.41c.88.26,1.73.53,2.56.82a19.7,19.7,0,0,1,4.72,2.2l0,0-.18-.12-.23.33,0,0a8.74,8.74,0,0,0-2.38-1.25c-.23-.09-.45-.17-.68-.24a7.63,7.63,0,0,1,1.42,1.25c.65.32,1.24.62,1.8.92l.73.39,0,0,.05,0a3.72,3.72,0,0,1,.45.33l.4.32v0l0,.06a3.31,3.31,0,0,1,.6.92l.08.17.18-.07a20.55,20.55,0,0,0,3.12-1.57.51.51,0,0,0,.23-.15l.14-.1a6,6,0,0,0,1-.56,5.17,5.17,0,0,0,.83-.72l.11-.1c.34.26-.07,1.53,0,2.35l0,.06s0,.06,0,.08v.16h0v.18a1,1,0,0,1,.28.23l.16-.07a2.29,2.29,0,0,0,1.39-.1c.82-.2,1.63-.38,2.46-.54a6.68,6.68,0,0,1,5,.72,5.17,5.17,0,0,1,1.44,2.13,16.26,16.26,0,0,1,1,2.21,8.1,8.1,0,0,1,.34,2.3c0,.58.15,1.14.18,1.72C97.1,100.56,97.06,100.82,97,101.08ZM77.1,89.5a1.8,1.8,0,0,0-.2-.19A1.8,1.8,0,0,1,77.1,89.5Zm.15.16-.08-.09ZM23.11,115.11l0,0h0Zm.44-1.26a.21.21,0,0,0,0,.11l0,0S23.55,113.9,23.55,113.85Zm18.93,8.78h-.16a.28.28,0,0,0,0-.09ZM37.87,120l-.08,0-.18-.18.13,0ZM39,122.9h0Zm-16-8.51-.08,0,0,0,.06,0Zm.78.28,0,.07h0v0Zm47.16,7.47s0,.07,0,.11l-.31.09-.47.1h0Zm4.14.12,0,0-.18,0Zm2-2.54,0,0a.44.44,0,0,0-.17-.19h0l.52,0Zm-4.78,1c.14-.12.28-.24.41-.37a.46.46,0,0,0,.18.13Zm4,1.36,1.26-.35h0a.62.62,0,0,0,0,.13Zm5.56-1.72a.45.45,0,0,0,.2-.16l.08.06-.38.16-.37.14s0,0,0,0Zm6.58-5.65h-.07l.1,0ZM84,116h-.06l.16-.07a.33.33,0,0,0-.1.06Zm-6,1.76-.06,0,.25,0Zm-2.44.4-.09,0-.09,0,.29,0ZM30.68,80.44c1.15-.33,2.16-1,3.29-1.37s2.24-.65,3.36-.89a4.7,4.7,0,0,0,.51-.12h.06l1.36-.14a54.75,54.75,0,0,0,5.88-.35c1-.2,2.07-.33,3.1-.48a19.9,19.9,0,0,1,2.89,0l6.18,0a24.51,24.51,0,0,1,6.11.44,17.75,17.75,0,0,0,2.4.33c.93.13,1.87.25,2.81.35a23.67,23.67,0,0,1,2.86.66c1,.23,2,.62,3,.81a16,16,0,0,1,3.06.72c.91.36,1.84.56,2.74.92.37.21.72.46,1.11.66a15.93,15.93,0,0,1,1.65,1c.08.09.16.19.25.28a7.61,7.61,0,0,1,1.26,1.4,4.45,4.45,0,0,1,.52,1.63v.89a2.85,2.85,0,0,1-.67,1.3l-.55.39a6.61,6.61,0,0,1-1.4.77c-.5-.35-.93-.84-1.47-1.16-.76-.45-1.54-.87-2.3-1.31a15.14,15.14,0,0,0-2.24-1A15.13,15.13,0,0,0,72.9,84.9l-.56-.14A8.58,8.58,0,0,0,70,84.07a17.22,17.22,0,0,0-2.35-.6c-2-.32-4-.52-5.93-.65a83.37,83.37,0,0,0-12.24.25,50.49,50.49,0,0,0-11.63,2.25l-1.27.44a4.18,4.18,0,0,0-1.34.19.22.22,0,0,0-.09.35c-1.12.44-2.24.92-3.31,1.42A16.59,16.59,0,0,0,29,89.41c-.31.23-.62.47-.91.72a3,3,0,0,0-.44.51,10.16,10.16,0,0,1-2.25-1.15,5.7,5.7,0,0,1-2-2.56,2.69,2.69,0,0,1-.29-1.24c0-.18.09-.35.13-.52l0-.11a5.49,5.49,0,0,1,1-1.45,7.92,7.92,0,0,1,.95-.88A13.77,13.77,0,0,1,28.63,81L29,80.9C29.53,80.75,30.1,80.61,30.68,80.44ZM80.16,90.68a.31.31,0,0,0,0-.1h0l.19,0s0,0,.05,0Zm-1.78-1.16h.05v.06S78.4,89.53,78.38,89.52Zm-10-5h0l-.46-.08-.62-.15C67.67,84.34,68,84.42,68.39,84.51Zm-39.08,6.6c.26,0,.51-.11.77-.18A.2.2,0,0,0,30,91h0a.3.3,0,0,0-.14.23h-.18Zm15.22-6,1.1-.25.81-.16.29,0,.73-.11.31,0,.74-.08.3,0,1-.07a.42.42,0,0,1,.42.54h0l0,.09a.43.43,0,0,1-.28.24h.12a10.85,10.85,0,0,1,5.32.56l0,0a10,10,0,0,0-4.82-.6h-.1l0,.1-.49,0h-.2l-.48,0q-1.56.18-3.06.39c-.82.16-1.62.36-2.42.59h0l-.22.07-.8.26-.28.09-.11,0-1.1.4,0,0h0c-1,.37-1.88.78-2.8,1.24a34,34,0,0,1,15.29-2.63A34.24,34.24,0,0,0,38,88.59l-.46.23a.39.39,0,0,1-.2.06c-.63.29-1.26.6-1.88.93l0,0,0,.09c-.05.09-.1.18-.14.27l-.2.42c0-.07.05-.14.09-.22l.21-.53-.5.28c-.81.46-1.59.95-2.34,1.46l0,0a32.31,32.31,0,0,1,2.84-1.73l.05,0v0l.76-.38c.37-.19.74-.37,1.12-.54a.47.47,0,0,1-.33-.74,6.48,6.48,0,0,0-1,1l-.31.38A6.22,6.22,0,0,1,36,88.9l.72-.78.32-.14,0,0a12.6,12.6,0,0,1,3.75-1.68c.62-.24,1.24-.46,1.88-.66h0l.85-.26ZM69.33,90a.18.18,0,0,0,.06.09h-.15ZM46.53,94l-1.42-.27-.46-.09-.08,0-1.5-.34c-1.46-.36-2.91-.77-4.35-1.22l-1.87-.61a.42.42,0,0,1-.3-.37v0a.71.71,0,0,1,0-.15.42.42,0,0,1,.1-.2l-.14-.09.14.08a.39.39,0,0,1,.29-.14v-.07l.33,0-.19-.28a3.16,3.16,0,0,1-.18-.27l-.09-.16-.17.08c-1,.48-1.46.91-1.56,1.32a.51.51,0,0,0,.11.49h0a.67.67,0,0,1-.14-.33l0-.15-.13,0a.36.36,0,0,1,0-.1l.62-.53a12.82,12.82,0,0,1,3.58-1.67l.24-.08c.6-.21,1.2-.39,1.82-.56L40,88.46l-.12,0A28.54,28.54,0,0,0,37,89.59l-.2.09.11.19a3.37,3.37,0,0,0,.7.84l.59.19h0l.34.11.68.22.57.17.45.14h0l.7.2h0l.17,0h0l.2.06.11,0h0l1.2.32.33,0,.75.07c.84.08,1.68.14,2.53.2-1.11-.07-2.21-.16-3.3-.26h-.07l-.18,0c.41.11.83.21,1.25.3h0l1.23.26h0l.11,0,.14,0h0l.39.08h0l.29,0,1.1.19h.07c.47.08.94.14,1.42.2,1.29,0,2.59-.06,3.87-.11l1.2,0V93h0v-.2c-1.64,0-3.17-.09-4.65-.16,1.77.07,3.52.12,5.25.16l1.22.06-.13.29h.31c.79,0,1.48,0,2.12,0-1.75,0-3.6,0-5.38.09-1,0-1.91.08-2.87.1v.1l.91.07h.13l.51,0h0l.45,0H52c.71,0,1.42,0,2.14,0h.35l.91-.06h.17l.2,0,.9-.1.23,0h0c.39,0,.79-.11,1.18-.19h0c.71-.13,1.41-.28,2.11-.46l.7-.2.16,0s0,0,0,0a.28.28,0,0,1,.13,0h0l.1.08,0,0,.07.11h0a.57.57,0,0,1,0,.14h0a.65.65,0,0,1,0,.14h0a.58.58,0,0,1,0,.14h0a.27.27,0,0,1-.09.12.67.67,0,0,1-.17.08c-.58.17-1.17.32-1.75.45l-.75.16-.45.08c-.24,0-.47.09-.71.12l-.52.07-.43.06-1.14.11-.21,0c-.43,0-.87.05-1.3.06h-.43c-.31,0-.62,0-.93,0H52l-1,0-.32,0A39,39,0,0,1,46.53,94ZM35.8,88.58a20.44,20.44,0,0,0-3.75,2.31v0a23.4,23.4,0,0,1,4.7-2.72Zm26.93,5.26-.3,0,.64-.11-.32.13ZM43.56,90.71l.51-.09.07.08ZM59.79,89l0,0,.14-.1h0l.07,0-.22.09Zm-1.55-.31-.1,0h.16ZM43.68,89.86a21.6,21.6,0,0,0-2.56,1.72l0,.06h0l0,0A21.53,21.53,0,0,1,43.68,89.86Zm5.09,2.76-.75,0Zm13.67-3.53h0a4.88,4.88,0,0,1-2.49-.65l-.85-.36c.35.12.7.26,1.08.41l.27.11A4.24,4.24,0,0,0,62.44,89.09Zm-4.22-.85h0a.49.49,0,0,1-.32.06,20.07,20.07,0,0,0-2.79-.15h-.18l-.6,0-.42,0h-.07c-.78,0-1.57.11-2.35.19h0l-.13,0-1.58.17-.66.07-.89.09-.56.05-1.16.07-.78,0h0l-.33.14.31-.14a.41.41,0,0,1-.37-.3,15.56,15.56,0,0,0-4.62,2.59h0a15.61,15.61,0,0,1,4.66-2.61.55.55,0,0,1,0-.22.19.19,0,0,0,0-.07s0,0,0,0a.08.08,0,0,1,0,0l0,0,0-.06h0l.08,0,0,0a.43.43,0,0,1,.17,0l.8,0h0l1-.06c.69-.18,1.41-.34,2.17-.47l.32,0,.2,0,0-.39a32,32,0,0,0-5.11.32A31.68,31.68,0,0,1,51.92,87l.07.12h.12a21,21,0,0,1,6.77.44c-.26-.06-.54-.12-.85-.17v0h.14a.37.37,0,0,1,.31.25h0v0h0A.53.53,0,0,1,58.22,88.24Zm-11,4.3-.63,0ZM69,92.43a.13.13,0,0,0,0,0l-.66.15-.09,0,1-.45A2.2,2.2,0,0,0,69,92.43ZM55.82,94.84h0Zm15.49-3.71-.11-.08.16-.07A.44.44,0,0,0,71.31,91.13Zm-5.55-.92h0l-.08.08a.3.3,0,0,0-.08.16l-.64.07A3.1,3.1,0,0,0,65.76,90.21ZM55.27,83.7l-.22,0A.27.27,0,0,0,55,83.6l.84,0Zm-9.09.58H46l.46-.06Zm-2.5.38c-.71.15-1.42.31-2.12.5l-.69.12c1-.25,2-.46,2.94-.65Zm28.41,7.1a.4.4,0,0,0-.07-.21c.35,0,.69-.08,1-.13C72.72,91.53,72.4,91.64,72.09,91.76Zm6.32-1.44v0Zm-5-11.59-.07,0,.07,0ZM43.45,77.39c-.44,0-.88,0-1.33,0,1.1-.13,2.22-.25,3.38-.35A13.25,13.25,0,0,1,43.45,77.39ZM26.24,110.92l-.07,0h0l.12-.06A.36.36,0,0,1,26.24,110.92ZM30,122l.5.12L30,122Zm5.57,1.13a5.71,5.71,0,0,1,.74.18l-1.22-.22Zm15,1.72.26,0H50.6Zm10.3-.06a.41.41,0,0,0,0,.09l-.95,0Zm24.75-9.61h0l0,0Zm-.93,9a11.2,11.2,0,0,1-1.54.89,16,16,0,0,1-1.86,1,29.28,29.28,0,0,0-3.82,1.47,5.63,5.63,0,0,1-2,.74c-.61.1-1.2.22-1.8.36-1.55.37-3,.95-4.59,1.27a76.16,76.16,0,0,1-9.4,1.06,51.75,51.75,0,0,1-9.56-.17c-3.21-.34-6.42-.67-9.6-1.23a36.37,36.37,0,0,1-4.13-.71c-1.48-.44-2.89-1.16-4.34-1.7a27.85,27.85,0,0,1-5.89-3.15.31.31,0,0,0-.11-.12c-.23-.13-.45-.27-.67-.42l-1-.71a20.67,20.67,0,0,1-1.59-1.38c-.64-.66-1.27-1.32-1.89-2l-.05,0,0,0,0,0-.06-.06a.28.28,0,0,1-.15-.08,8.27,8.27,0,0,1-.69-.81l-.23-.3,0,0-.18-.29-.16-.28h0l-.06-.11c-.08-.17-.17-.35-.24-.53,0,0,0,0,0,0h0a2,2,0,0,1-.36-.78l-.1,0a2.62,2.62,0,0,1,.39-1.75,10.86,10.86,0,0,1,.88-1,20.2,20.2,0,0,1,2.82-2.15c.31-.22.59-.44.88-.64A25.07,25.07,0,0,1,26,109.6l1.18-.62a.33.33,0,0,1,.37,0h0a3.14,3.14,0,0,1,.4-.08,2.39,2.39,0,0,0,.13.21.43.43,0,0,0-.22-.06l.06.07.14.28a.35.35,0,0,1-.09.43h0l0,0c-.25.13-.49.25-.74.36l-.16.07-.64.28h0l-.25.11h0l-1.73.71,0,0-.64.29-.4.19h0l-.29.15h0l-.12.06h0l-.44.24c-.2.11-.4.23-.59.36l-.32.23-.09.08-.19.16-.09.09c-.06,0-.1.1-.15.15l-.08.1a.61.61,0,0,0-.12.16l-.07.09-.13.22v0a1.89,1.89,0,0,0-.11.25.31.31,0,0,1,0,.08s0,.08,0,.12h0a2.31,2.31,0,0,0,.07,1.3c-.26.7.42,1.29.92,1.72.92.81,2,1.45,2.92,2.24a6.43,6.43,0,0,0,2.15,1.12c.41.26.81.52,1.22.76l.16.07.05,0h.2l.38.11a2.54,2.54,0,0,0,.57.19l.31.11h.11a.23.23,0,0,0,.11,0v.08c2.88.7,5.83,1.29,8.81,1.75h0a113.89,113.89,0,0,0,17.46,1.35c3.78,0,7.56-.19,11.3-.56l2.44-.29a58.85,58.85,0,0,0,13.51-2.7c.87-.28,1.74-.57,2.59-.93a2.54,2.54,0,0,0,1-.68l.11,0,0-.05s0,0,0-.08c.2-.06.39-.11.58-.18l1.11-.62a.18.18,0,0,1,0-.07l.79-.61c.75-1.11,1.51-2.39,1.36-3.51a5.77,5.77,0,0,1-.79-1.33l-.18-.14a.34.34,0,0,1-.12-.46,1.05,1.05,0,0,1,.4-.48l0,0a.27.27,0,0,1,.38,0l0,0a.31.31,0,0,1,.23,0,2.21,2.21,0,0,1,.63.59h0c.05,0,.08.11.13.17a3.94,3.94,0,0,1,.39.83,3,3,0,0,1,.21.8v0c0,.07,0,.15,0,.22v.26a5.24,5.24,0,0,1,0,.57,2.91,2.91,0,0,1-.15.58,2.72,2.72,0,0,1-.11.25v0h0l-.18.31,0,.06a2.47,2.47,0,0,1-.21.27l0,.06a3.27,3.27,0,0,1-.24.27c-.15.21-.31.42-.47.62l.08,0A29.62,29.62,0,0,1,84.75,124.22Zm5.39-12H90l.07-.06Z"/><path class="cls-1" d="M90.43,94.86h-.07a6.7,6.7,0,0,0-2,0,14.56,14.56,0,0,0-2.13.32c-.56.13-1.11.29-1.66.46-.05.12-.1.25-.14.38v0l0,0s0,.09,0,.14h0l-.11.29c0,.35,0,.7-.09,1s-.16.86-.23,1.29c-.21.62-.44,1.22-.64,1.84a.23.23,0,0,0,0,.2c-.42,1-.68,2.14-1,3.21,0,.17-.11.34-.17.51s-.19.47-.28.71c-.29.74-.54,1.55-.84,2.33l-.06.15a9.75,9.75,0,0,1-.6,1.26c-.21.37-.44.71-.65,1.08a4.85,4.85,0,0,1-1.08,1.61.45.45,0,0,0-.18.48c.19,1,1.83.54,2.43.35a8.28,8.28,0,0,0,2.15-1.11c.5-.35,1-.66,1.5-1,.81-.42,1.59-.86,2.36-1.34.24-.16.48-.31.71-.48.73-.49,1.44-1,2.11-1.56a11,11,0,0,0,4.11-7.16C94.14,97.48,93,95.2,90.43,94.86Zm-9.14,14.65a.39.39,0,0,1-.09-.26l.12-.22,0,0,.26-.1a.33.33,0,0,1,.28-.07H82a2,2,0,0,1,.54.08h0a5.2,5.2,0,0,1,.76.25l1,.29a.33.33,0,0,1,.13.07l.08,0c-.41.23-.8.47-1.19.71A2.75,2.75,0,0,1,81.29,109.51ZM85.4,109l0,0c-.67-.16-1.29-.48-2-.63s-1.1-.28-1.65-.38c.28-.71.53-1.44.79-2.14.59-1.55,1.32-3,1.9-4.57a12.72,12.72,0,0,0,.71-2.57,4.07,4.07,0,0,0,.06-.6c.06-.15.11-.3.16-.46s.19-.59.28-.88.08-.36.13-.54a3.59,3.59,0,0,0,.35-.12,8.58,8.58,0,0,1,2.12-.54c1.12-.1,2.68,0,3.51.85s.9,2.66.86,3.9a6,6,0,0,1-1.78,3.82c-.69.82-1.39,1.65-2.12,2.43A11.45,11.45,0,0,1,85.4,109Z"/><path class="cls-1" d="M29.05,101.4a27.63,27.63,0,0,1-1.75-5.63c-.09-.41-.69-.21-.62.19a26,26,0,0,0,1.65,5.67,19.38,19.38,0,0,0,1.2,2.36,12.94,12.94,0,0,1,1.4,2.55.39.39,0,0,0,.74-.23,6.58,6.58,0,0,0-1.09-2.12A24.33,24.33,0,0,1,29.05,101.4Z"/><path class="cls-1" d="M31.38,101.7c-.16-.3-.59,0-.44.28a18.87,18.87,0,0,0,2.88,5c.33.36.87-.21.52-.55C32.93,105.08,32.27,103.39,31.38,101.7Z"/><path class="cls-1" d="M80.15,103.72c.06-.19-.27-.32-.34-.13-.56,1.37-.64,2.88-1.1,4.28a11.36,11.36,0,0,1-1.06,2.36c-.19.33-.41.64-.6,1-.1.16-.4,1-.62,1-.43.11-.21.82.2.66s.56-.63.78-1.06a26.12,26.12,0,0,0,1.39-2.68C79.47,107.37,79.55,105.49,80.15,103.72Z"/><path class="cls-1" d="M186.74,131.33c-2.62-2.3-5.15-4.45-7.38-6.35-6.53-5.57-12.17-10.37-16.09-15.11-4.39-5.29-6.43-10.31-6.43-15.79A20.25,20.25,0,0,1,162,80.24a17.43,17.43,0,0,1,13-5.64,16.26,16.26,0,0,1,10.18,3.52,20.61,20.61,0,0,1,4.12,4.3,20.11,20.11,0,0,1,4.12-4.3,16.24,16.24,0,0,1,10.18-3.52,17.4,17.4,0,0,1,13,5.64,20.25,20.25,0,0,1,5.15,13.84c0,5.48-2,10.5-6.43,15.79-3.93,4.74-9.56,9.54-16.09,15.11h0c-2.22,1.89-4.75,4-7.37,6.34a3.82,3.82,0,0,1-2.5.94A3.87,3.87,0,0,1,186.74,131.33Zm8.95-50.21a18.35,18.35,0,0,0-4.38,5.07,2.4,2.4,0,0,1-4.12,0,18.35,18.35,0,0,0-4.38-5.07A12.57,12.57,0,0,0,175,78.4a13.68,13.68,0,0,0-10.18,4.42,16.46,16.46,0,0,0-4.14,11.26c0,4.61,1.72,8.73,5.56,13.37,3.71,4.48,9.24,9.19,15.63,14.64,2.24,1.9,4.78,4.07,7.43,6.38,2.64-2.31,5.18-4.47,7.41-6.37h0c6.4-5.45,11.92-10.16,15.63-14.64,3.85-4.64,5.56-8.76,5.56-13.37a16.46,16.46,0,0,0-4.14-11.26,13.66,13.66,0,0,0-10.17-4.42A12.55,12.55,0,0,0,195.69,81.12Z"/><path class="cls-1" d="M249.82,114.72a2.45,2.45,0,0,1-.8.89,1.13,1.13,0,0,1-.88.22c-.22,0-.37-.15-.37-.45v-9.93H238a.45.45,0,0,1-.44-.37,1.11,1.11,0,0,1,.22-.89,3.5,3.5,0,0,1,.8-1,2,2,0,0,1,1-.37h8.28v-8.3a2,2,0,0,1,.37-1,2.24,2.24,0,0,1,.88-.82c.36-.22.58-.37.8-.3a.49.49,0,0,1,.37.45v9.93H260c.3.07.44.15.44.37a1.27,1.27,0,0,1-.22,1,2.5,2.5,0,0,1-.88.89,1.45,1.45,0,0,1-.8.37h-8.35v8.3A2,2,0,0,1,249.82,114.72Z"/><path class="cls-1" d="M128.15,114.72a2.29,2.29,0,0,1-.8.89,1.13,1.13,0,0,1-.88.22c-.22,0-.37-.15-.37-.45v-9.93h-9.81a.45.45,0,0,1-.44-.37,1.15,1.15,0,0,1,.22-.89,3.36,3.36,0,0,1,.81-1,1.94,1.94,0,0,1,1-.37h8.27v-8.3a2,2,0,0,1,.37-1,2.24,2.24,0,0,1,.88-.82c.37-.22.59-.37.8-.3a.49.49,0,0,1,.37.45v9.93h9.82c.29.07.44.15.44.37a1.31,1.31,0,0,1-.22,1,2.59,2.59,0,0,1-.88.89,1.51,1.51,0,0,1-.81.37h-8.35v8.3A2,2,0,0,1,128.15,114.72Z"/></svg>