<svg id="Capa_1" data-name="Capa 1" xmlns="http://www.w3.org/2000/svg" viewBox="0 0 126.99 142.54"><defs><style>.cls-1{fill:none;stroke:#008d8e;stroke-miterlimit:10;}.cls-2{fill:#fff8e9;}</style></defs><title>home-deco1</title><line class="cls-1" x1="1.33" y1="111.92" x2="60.64" y2="111.92"/><line class="cls-1" x1="30.99" y1="82.26" x2="30.99" y2="141.57"/><path class="cls-2" d="M62.44,6.91a2.13,2.13,0,1,1-2.13-2.13A2.12,2.12,0,0,1,62.44,6.91Z"/><path class="cls-2" d="M82.27,6.91a2.13,2.13,0,1,1-2.13-2.13A2.12,2.12,0,0,1,82.27,6.91Z"/><path class="cls-2" d="M102.1,6.91A2.13,2.13,0,1,1,100,4.78,2.13,2.13,0,0,1,102.1,6.91Z"/><path class="cls-2" d="M121.92,6.91a2.12,2.12,0,1,1-2.12-2.13A2.12,2.12,0,0,1,121.92,6.91Z"/><path class="cls-2" d="M62.44,25.32a2.13,2.13,0,1,1-2.13-2.12A2.13,2.13,0,0,1,62.44,25.32Z"/><path class="cls-2" d="M82.27,25.32a2.13,2.13,0,1,1-2.13-2.12A2.13,2.13,0,0,1,82.27,25.32Z"/><path class="cls-2" d="M102.1,25.32A2.13,2.13,0,1,1,100,23.2,2.13,2.13,0,0,1,102.1,25.32Z"/><circle class="cls-2" cx="119.8" cy="25.32" r="2.12"/><path class="cls-2" d="M62.44,43.73a2.13,2.13,0,1,1-2.13-2.12A2.13,2.13,0,0,1,62.44,43.73Z"/><path class="cls-2" d="M82.27,43.73a2.13,2.13,0,1,1-2.13-2.12A2.13,2.13,0,0,1,82.27,43.73Z"/><path class="cls-2" d="M102.1,43.73A2.13,2.13,0,1,1,100,41.61,2.13,2.13,0,0,1,102.1,43.73Z"/><path class="cls-2" d="M121.92,43.73a2.12,2.12,0,1,1-2.12-2.12A2.12,2.12,0,0,1,121.92,43.73Z"/><path class="cls-2" d="M62.44,62.15A2.13,2.13,0,1,1,60.31,60,2.12,2.12,0,0,1,62.44,62.15Z"/><path class="cls-2" d="M82.27,62.15A2.13,2.13,0,1,1,80.14,60,2.12,2.12,0,0,1,82.27,62.15Z"/><path class="cls-2" d="M102.1,62.15A2.13,2.13,0,1,1,100,60,2.13,2.13,0,0,1,102.1,62.15Z"/><circle class="cls-2" cx="119.8" cy="62.15" r="2.12"/><path class="cls-2" d="M62.44,80.56a2.13,2.13,0,1,1-2.13-2.13A2.12,2.12,0,0,1,62.44,80.56Z"/><path class="cls-2" d="M82.27,80.56a2.13,2.13,0,1,1-2.13-2.13A2.12,2.12,0,0,1,82.27,80.56Z"/><path class="cls-2" d="M102.1,80.56A2.13,2.13,0,1,1,100,78.43,2.13,2.13,0,0,1,102.1,80.56Z"/><path class="cls-2" d="M121.92,80.56a2.12,2.12,0,1,1-2.12-2.13A2.12,2.12,0,0,1,121.92,80.56Z"/></svg>