<svg id="Capa_1" data-name="Capa 1" xmlns="http://www.w3.org/2000/svg" viewBox="0 0 555.42 517.51"><defs><style>.cls-1{fill:#008d8e;}.cls-2{fill:none;stroke:#001b42;stroke-miterlimit:10;}.cls-3{fill:#fff8e9;fill-rule:evenodd;}</style></defs><title>Mesa de trabajo 7</title><path class="cls-1" d="M388,157.82a193.92,193.92,0,0,0-222.11-.36,194.16,194.16,0,0,0,111,218.22A194,194,0,0,0,388,157.82Z"/><path class="cls-1" d="M217.16,437.93v1.64h-7.07v4.95h5.73v1.58h-5.73v5.08h7.07v1.64h-9.07V437.93Z"/><path class="cls-1" d="M224.29,445.17l-4.86-7.24h2a.56.56,0,0,1,.32.07.76.76,0,0,1,.18.21l3.84,6a2.75,2.75,0,0,1,.22-.47l3.63-5.45a.92.92,0,0,1,.2-.23.39.39,0,0,1,.26-.09H232l-4.88,7.15,5,7.74h-2a.48.48,0,0,1-.35-.12,1,1,0,0,1-.21-.26l-3.95-6.25a3.12,3.12,0,0,1-.18.42l-3.85,5.83a1.71,1.71,0,0,1-.21.26.45.45,0,0,1-.33.12h-1.85Z"/><path class="cls-1" d="M237.12,447.25v5.57h-2V437.93h4.34a8,8,0,0,1,2.44.33,4.54,4.54,0,0,1,1.71.93,3.69,3.69,0,0,1,1,1.45,5.23,5.23,0,0,1,.33,1.9,4.84,4.84,0,0,1-.36,1.9,4.12,4.12,0,0,1-1.05,1.49,4.8,4.8,0,0,1-1.72,1,7.42,7.42,0,0,1-2.36.35Zm0-1.6h2.36a4.61,4.61,0,0,0,1.51-.23,2.86,2.86,0,0,0,1.09-.64,2.56,2.56,0,0,0,.67-1,3.4,3.4,0,0,0,.23-1.26,2.86,2.86,0,0,0-.87-2.22,3.78,3.78,0,0,0-2.63-.8h-2.36Z"/><path class="cls-1" d="M257.41,437.93v1.64h-7.07v4.95h5.72v1.58h-5.72v5.08h7.07v1.64h-9.08V437.93Z"/><path class="cls-1" d="M263.31,446.61v6.21h-2V437.93h4.17a9,9,0,0,1,2.41.28,4.72,4.72,0,0,1,1.68.83,3.31,3.31,0,0,1,1,1.31,4.19,4.19,0,0,1,.32,1.7,4.46,4.46,0,0,1-.24,1.48,4.08,4.08,0,0,1-1.86,2.16,5.46,5.46,0,0,1-1.53.58,2.11,2.11,0,0,1,.66.64l4.3,5.91h-1.77a.86.86,0,0,1-.8-.43l-3.82-5.32a1.41,1.41,0,0,0-.38-.36,1.45,1.45,0,0,0-.62-.1Zm0-1.47h2.08a5.08,5.08,0,0,0,1.54-.21,3.13,3.13,0,0,0,1.11-.61,2.43,2.43,0,0,0,.67-.92,3,3,0,0,0,.23-1.2,2.4,2.4,0,0,0-.87-2,4.16,4.16,0,0,0-2.58-.67h-2.18Z"/><path class="cls-1" d="M277.56,452.82h-2V437.93h2Z"/><path class="cls-1" d="M291.43,437.93v1.64h-7.07v4.95h5.72v1.58h-5.72v5.08h7.07v1.64h-9.08V437.93Z"/><path class="cls-1" d="M296.56,438a.87.87,0,0,1,.29.27l8.53,11.22c0-.18,0-.35,0-.52s0-.33,0-.49V437.93h1.75v14.89h-1a.9.9,0,0,1-.39-.08,1.15,1.15,0,0,1-.32-.28l-8.52-11.22a4.63,4.63,0,0,1,0,.51c0,.17,0,.32,0,.46v10.61h-1.74V437.93h1A.8.8,0,0,1,296.56,438Z"/><path class="cls-1" d="M321.9,449.74a.42.42,0,0,1,.3.14l.78.86a6.16,6.16,0,0,1-2.19,1.65,7.34,7.34,0,0,1-3.11.6,7.23,7.23,0,0,1-2.89-.56,6.34,6.34,0,0,1-2.21-1.56,7.17,7.17,0,0,1-1.42-2.4,9,9,0,0,1-.5-3.09,8.57,8.57,0,0,1,.54-3.09,7.09,7.09,0,0,1,1.51-2.41,6.77,6.77,0,0,1,2.34-1.56,7.91,7.91,0,0,1,3-.56,7,7,0,0,1,2.8.51,7.17,7.17,0,0,1,2.09,1.38l-.65.93a.66.66,0,0,1-.16.17.41.41,0,0,1-.27.07.48.48,0,0,1-.28-.1l-.36-.24a5.7,5.7,0,0,0-.48-.32,4.56,4.56,0,0,0-.66-.31,4.65,4.65,0,0,0-.88-.24,5.83,5.83,0,0,0-1.16-.1,5.67,5.67,0,0,0-2.17.41,4.84,4.84,0,0,0-1.69,1.17,5.23,5.23,0,0,0-1.1,1.85,7,7,0,0,0-.4,2.44,7.05,7.05,0,0,0,.4,2.48,5.35,5.35,0,0,0,1.08,1.85,4.56,4.56,0,0,0,1.62,1.15,5.14,5.14,0,0,0,2,.39,8.32,8.32,0,0,0,1.18-.08,4.75,4.75,0,0,0,1-.24,4.12,4.12,0,0,0,.84-.42,6.61,6.61,0,0,0,.77-.61A.56.56,0,0,1,321.9,449.74Z"/><path class="cls-1" d="M328.81,452.82h-2V437.93h2Z"/><path class="cls-1" d="M345.71,452.82h-1.54a.65.65,0,0,1-.43-.14.86.86,0,0,1-.25-.34l-1.37-3.59h-6.61l-1.38,3.59a.73.73,0,0,1-.25.33.63.63,0,0,1-.43.15h-1.54l5.89-14.89h2Zm-9.65-5.53h5.5l-2.31-6.06a10.72,10.72,0,0,1-.44-1.4c-.08.28-.15.55-.22.79l-.21.62Z"/><path class="cls-1" d="M435.09,129.21a8.49,8.49,0,0,1-.53,3,6.72,6.72,0,0,1-1.48,2.34,6.56,6.56,0,0,1-2.29,1.52,8,8,0,0,1-3,.53h-5.51V121.76h5.51a7.84,7.84,0,0,1,3,.54,6.53,6.53,0,0,1,2.29,1.51,6.81,6.81,0,0,1,1.48,2.36A8.43,8.43,0,0,1,435.09,129.21Zm-2,0a7.46,7.46,0,0,0-.37-2.45,5.29,5.29,0,0,0-1.05-1.83,4.41,4.41,0,0,0-1.64-1.14,5.53,5.53,0,0,0-2.15-.4h-3.5V135h3.5a5.71,5.71,0,0,0,2.15-.39,4.65,4.65,0,0,0,1.64-1.14,5.29,5.29,0,0,0,1.05-1.83A7.42,7.42,0,0,0,433,129.21Z"/><path class="cls-1" d="M441,136.65h-2V121.76h2Z"/><path class="cls-1" d="M453.34,124.09a.77.77,0,0,1-.2.23.42.42,0,0,1-.26.08.69.69,0,0,1-.41-.18c-.15-.11-.35-.24-.59-.39a4.86,4.86,0,0,0-.85-.39,3.83,3.83,0,0,0-1.21-.17,3.57,3.57,0,0,0-1.18.18,2.65,2.65,0,0,0-.86.49,2,2,0,0,0-.52.74,2.44,2.44,0,0,0-.17.9,1.73,1.73,0,0,0,.3,1,2.61,2.61,0,0,0,.8.7,6.53,6.53,0,0,0,1.13.5l1.3.45q.66.22,1.29.51a4.36,4.36,0,0,1,1.13.72,3.33,3.33,0,0,1,.81,1.07,3.65,3.65,0,0,1,.3,1.56,5.13,5.13,0,0,1-.33,1.84,4.34,4.34,0,0,1-1,1.49,4.48,4.48,0,0,1-1.55,1,5.49,5.49,0,0,1-2.09.37,6.34,6.34,0,0,1-2.61-.53,6.16,6.16,0,0,1-2-1.42l.58-1a.61.61,0,0,1,.2-.19.4.4,0,0,1,.26-.08.83.83,0,0,1,.49.23,8.52,8.52,0,0,0,.7.52,5.17,5.17,0,0,0,1,.51,3.91,3.91,0,0,0,1.45.23,3.79,3.79,0,0,0,1.26-.19,2.59,2.59,0,0,0,.94-.56,2.24,2.24,0,0,0,.59-.86,2.82,2.82,0,0,0,.21-1.11,1.86,1.86,0,0,0-.3-1.1,2.68,2.68,0,0,0-.8-.73,5.34,5.34,0,0,0-1.13-.49l-1.29-.42a12.8,12.8,0,0,1-1.3-.49,4.24,4.24,0,0,1-1.12-.73,3.26,3.26,0,0,1-.8-1.11,4.07,4.07,0,0,1-.3-1.66,4,4,0,0,1,1.18-2.84,4.39,4.39,0,0,1,1.42-.91,5.18,5.18,0,0,1,2-.35,6.25,6.25,0,0,1,2.25.4,5.12,5.12,0,0,1,1.78,1.14Z"/><path class="cls-1" d="M466.61,121.76v1.64h-7.07v4.95h5.72v1.58h-5.72V135h7.07v1.64h-9.08V121.76Z"/><path class="cls-1" d="M471.74,121.83a.87.87,0,0,1,.29.27l8.53,11.23c0-.18,0-.36,0-.53s0-.33,0-.49V121.76h1.75v14.89h-1a.87.87,0,0,1-.39-.08,1.15,1.15,0,0,1-.32-.28L472,125.08a4.32,4.32,0,0,1,0,.5c0,.17,0,.32,0,.46v10.61h-1.74V121.76h1A.84.84,0,0,1,471.74,121.83Zm6.05-2.46a.71.71,0,0,0,.55-.21.9.9,0,0,0,.2-.6h1a2.66,2.66,0,0,1-.12.82,1.74,1.74,0,0,1-.33.65,1.48,1.48,0,0,1-.53.43,1.7,1.7,0,0,1-.73.15,1.81,1.81,0,0,1-.69-.14c-.22-.09-.43-.19-.63-.29l-.57-.3a1.16,1.16,0,0,0-.51-.14.65.65,0,0,0-.54.23.94.94,0,0,0-.21.6h-1a2.73,2.73,0,0,1,.12-.83,1.9,1.9,0,0,1,.33-.65,1.67,1.67,0,0,1,.55-.43,1.72,1.72,0,0,1,.72-.15,1.8,1.8,0,0,1,.69.13,6.09,6.09,0,0,1,.63.3l.56.3A1.14,1.14,0,0,0,477.79,119.37Z"/><path class="cls-1" d="M500.38,129.21a8.64,8.64,0,0,1-.53,3.07,6.88,6.88,0,0,1-1.48,2.41,6.56,6.56,0,0,1-2.29,1.56,7.74,7.74,0,0,1-3,.56,7.65,7.65,0,0,1-3-.56,6.66,6.66,0,0,1-2.29-1.56,7,7,0,0,1-1.48-2.41,9.32,9.32,0,0,1,0-6.14,7,7,0,0,1,1.48-2.41,6.55,6.55,0,0,1,2.29-1.57,7.47,7.47,0,0,1,3-.57,7.56,7.56,0,0,1,3,.57,6.46,6.46,0,0,1,2.29,1.57,6.88,6.88,0,0,1,1.48,2.41A8.68,8.68,0,0,1,500.38,129.21Zm-2.05,0a7.57,7.57,0,0,0-.37-2.46,5.21,5.21,0,0,0-1-1.85,4.68,4.68,0,0,0-1.65-1.15,5.51,5.51,0,0,0-2.16-.41,5.57,5.57,0,0,0-2.15.41,4.68,4.68,0,0,0-1.65,1.15,5.39,5.39,0,0,0-1.05,1.85,7.57,7.57,0,0,0-.37,2.46,7.48,7.48,0,0,0,.37,2.46,5.34,5.34,0,0,0,1.05,1.84,4.68,4.68,0,0,0,1.65,1.15,6,6,0,0,0,4.31,0,4.68,4.68,0,0,0,1.65-1.15,5.17,5.17,0,0,0,1-1.84A7.48,7.48,0,0,0,498.33,129.21Z"/><path class="cls-1" d="M41.73,135.11V120.22h4.7a9,9,0,0,1,2.34.27,4.39,4.39,0,0,1,1.61.77,3.11,3.11,0,0,1,.94,1.22,4.18,4.18,0,0,1,.3,1.62,3.41,3.41,0,0,1-.17,1.06,3,3,0,0,1-.51,1,3.67,3.67,0,0,1-.87.78,4.83,4.83,0,0,1-1.21.56,4.55,4.55,0,0,1,2.43,1.17,3.1,3.1,0,0,1,.82,2.25,4.19,4.19,0,0,1-.34,1.72,3.69,3.69,0,0,1-1,1.34,4.49,4.49,0,0,1-1.62.87,7,7,0,0,1-2.2.31Zm2-8.22h2.63a4.88,4.88,0,0,0,1.46-.19,2.88,2.88,0,0,0,1-.52,2,2,0,0,0,.6-.8,2.71,2.71,0,0,0,.2-1,2.3,2.3,0,0,0-.78-1.92,3.93,3.93,0,0,0-2.43-.61h-2.7Zm0,1.43v5.19h3.18a4.88,4.88,0,0,0,1.47-.2,2.69,2.69,0,0,0,1-.56,2.11,2.11,0,0,0,.59-.85,3.14,3.14,0,0,0,.18-1.08,2.26,2.26,0,0,0-.81-1.83,3.78,3.78,0,0,0-2.44-.67Z"/><path class="cls-1" d="M58.06,128.89v6.22h-2V120.22h4.16a9.09,9.09,0,0,1,2.42.28,4.56,4.56,0,0,1,1.68.83,3.28,3.28,0,0,1,1,1.3,4.45,4.45,0,0,1,.32,1.71,4.22,4.22,0,0,1-.25,1.48,3.77,3.77,0,0,1-.71,1.23,4.55,4.55,0,0,1-1.14.93,5.46,5.46,0,0,1-1.53.58,2.11,2.11,0,0,1,.66.64L67,135.11H65.2a.88.88,0,0,1-.81-.43l-3.82-5.32a1.28,1.28,0,0,0-.38-.36,1.4,1.4,0,0,0-.62-.11Zm0-1.46h2.09a5.17,5.17,0,0,0,1.54-.21,3.29,3.29,0,0,0,1.11-.61,2.58,2.58,0,0,0,.67-.93,3.08,3.08,0,0,0,.23-1.19,2.39,2.39,0,0,0-.87-2,4.17,4.17,0,0,0-2.59-.67H58.06Z"/><path class="cls-1" d="M82.07,135.11H80.53a.65.65,0,0,1-.43-.14.86.86,0,0,1-.25-.34L78.47,131h-6.6l-1.38,3.6a.73.73,0,0,1-.25.33.63.63,0,0,1-.43.15H68.27l5.89-14.89h2Zm-9.65-5.53h5.5l-2.31-6.06a10.72,10.72,0,0,1-.44-1.4c-.08.28-.15.54-.23.78s-.14.45-.21.63Z"/><path class="cls-1" d="M86.2,120.28a1.21,1.21,0,0,1,.29.28L95,131.78c0-.18,0-.35,0-.52s0-.34,0-.5V120.22h1.75v14.89h-1a.87.87,0,0,1-.39-.08,1,1,0,0,1-.32-.29l-8.52-11.21c0,.18,0,.35,0,.51s0,.32,0,.46v10.61H84.78V120.22h1A1,1,0,0,1,86.2,120.28Z"/><path class="cls-1" d="M113.92,127.67a8.43,8.43,0,0,1-.52,3,6.67,6.67,0,0,1-1.48,2.35,6.53,6.53,0,0,1-2.29,1.51,7.84,7.84,0,0,1-3,.54h-5.51V120.22h5.51a8,8,0,0,1,3,.53,6.56,6.56,0,0,1,2.29,1.52,6.77,6.77,0,0,1,1.48,2.35A8.49,8.49,0,0,1,113.92,127.67Zm-2,0a7.69,7.69,0,0,0-.37-2.45,5.29,5.29,0,0,0-1.05-1.83,4.51,4.51,0,0,0-1.65-1.15,5.66,5.66,0,0,0-2.14-.39h-3.51v11.63h3.51a5.48,5.48,0,0,0,2.14-.4,4.37,4.37,0,0,0,1.65-1.14,5.15,5.15,0,0,0,1.05-1.82A7.74,7.74,0,0,0,111.88,127.67Z"/><path class="cls-1" d="M119.84,135.11h-2V120.22h2Z"/><path class="cls-1" d="M126.05,120.28a1.07,1.07,0,0,1,.3.28l8.53,11.22a4.73,4.73,0,0,1,0-.52c0-.17,0-.34,0-.5V120.22h1.74v14.89h-1a1,1,0,0,1-.4-.08.93.93,0,0,1-.31-.29l-8.52-11.21q0,.27,0,.51c0,.17,0,.32,0,.46v10.61h-1.75V120.22h1A.93.93,0,0,1,126.05,120.28Z"/><path class="cls-1" d="M147.58,133.64c.4,0,.76,0,1.1,0a6.8,6.8,0,0,0,.94-.18,5.37,5.37,0,0,0,.83-.27c.26-.11.52-.23.78-.37v-3.28H149a.4.4,0,0,1-.31-.12.36.36,0,0,1-.12-.28V128H153v5.71a8.19,8.19,0,0,1-1.16.71,7.56,7.56,0,0,1-1.28.5,9.31,9.31,0,0,1-1.47.31,14.75,14.75,0,0,1-1.69.09,7.58,7.58,0,0,1-2.94-.55,6.7,6.7,0,0,1-2.3-1.56,7,7,0,0,1-1.51-2.41,8.48,8.48,0,0,1-.54-3.08,8.82,8.82,0,0,1,.53-3.11,6.67,6.67,0,0,1,3.89-4,8.29,8.29,0,0,1,3.11-.55,9.21,9.21,0,0,1,1.63.13,8.06,8.06,0,0,1,1.39.37,7.36,7.36,0,0,1,1.19.6,7.65,7.65,0,0,1,1,.78l-.57.92a.54.54,0,0,1-.45.28.7.7,0,0,1-.36-.12c-.17-.09-.37-.21-.58-.35a5,5,0,0,0-.77-.4,6.29,6.29,0,0,0-1.08-.33,7.14,7.14,0,0,0-1.48-.13,5.78,5.78,0,0,0-2.25.41,4.78,4.78,0,0,0-1.72,1.17,5.22,5.22,0,0,0-1.08,1.85,7.22,7.22,0,0,0-.38,2.44,7.58,7.58,0,0,0,.39,2.52,5.21,5.21,0,0,0,1.12,1.87,4.69,4.69,0,0,0,1.7,1.18A5.72,5.72,0,0,0,147.58,133.64Z"/><circle class="cls-2" cx="198.38" cy="198.38" r="193.88"/><circle class="cls-2" cx="355.42" cy="198.38" r="193.88"/><circle class="cls-2" cx="276.9" cy="316.57" r="193.88"/><path class="cls-3" d="M250.05,213.4h-4V212h12v7.53a20.34,20.34,0,0,1,5.94-6.57,13.33,13.33,0,0,1,7.41-2.13,12.5,12.5,0,0,1,7.91,2.44,10.23,10.23,0,0,1,3.83,6.75,21.67,21.67,0,0,1,6.19-6.92,13.08,13.08,0,0,1,7.54-2.27q5.63,0,8.81,3.26t3.22,8.92v26.52H313v1.37H297v-1.37h4V220.23q0-4.33-1.15-5.92c-.77-1.05-2.13-1.59-4.07-1.59a10.54,10.54,0,0,0-6.54,2.28,24.66,24.66,0,0,0-5.85,7.28v27.28h4.09v1.37h-16v-1.37h4.09V220.23q0-4.33-1.15-5.92c-.78-1.05-2.12-1.59-4-1.59a10.64,10.64,0,0,0-6.72,2.36,22.05,22.05,0,0,0-5.62,7.2v27.28h4v1.37H246v-1.37h4Z"/></svg>