<svg id="Capa_1" data-name="Capa 1" xmlns="http://www.w3.org/2000/svg" viewBox="0 0 16 16"><defs><style>.cls-1{fill:#008d8e;}.cls-2{fill:#fff8e9;fill-rule:evenodd;}</style></defs><title>Mesa de trabajo 5 copia</title><rect class="cls-1" x="0.37" y="0.46" width="15.25" height="15.25" rx="7.62"/><path class="cls-2" d="M3.69,5.53H3.1v-.2H4.85v1.1a2.93,2.93,0,0,1,.87-1A2,2,0,0,1,6.8,5.16,1.83,1.83,0,0,1,8,5.52a1.55,1.55,0,0,1,.56,1,3.1,3.1,0,0,1,.9-1,1.9,1.9,0,0,1,1.1-.33,1.73,1.73,0,0,1,1.29.48,1.78,1.78,0,0,1,.46,1.3v3.87h.61V11H10.54v-.2h.59V6.53A1.56,1.56,0,0,0,11,5.67a.67.67,0,0,0-.59-.24,1.56,1.56,0,0,0-1,.34,3.47,3.47,0,0,0-.85,1.06v4h.59V11H6.81v-.2h.6V6.53a1.48,1.48,0,0,0-.17-.86.67.67,0,0,0-.59-.24,1.59,1.59,0,0,0-1,.35,3.31,3.31,0,0,0-.82,1v4h.59V11H3.1v-.2h.59Z"/></svg>