<svg id="Capa_1" data-name="Capa 1" xmlns="http://www.w3.org/2000/svg" viewBox="0 0 98.42 99.42"><defs><style>.cls-1{fill:#008d8e;}.cls-2{fill:#fff8e9;fill-rule:evenodd;}</style></defs><title>Mesa de trabajo 5</title><rect class="cls-1" x="-0.18" y="0.42" width="98.6" height="98.6" rx="49.3"/><path class="cls-2" d="M21.33,33.2H17.52V31.91c3.77,0,7.54,0,11.31,0V39a19.12,19.12,0,0,1,5.6-6.2,12.58,12.58,0,0,1,7-2,11.81,11.81,0,0,1,7.46,2.3,9.69,9.69,0,0,1,3.62,6.37,20.48,20.48,0,0,1,5.84-6.54,12.36,12.36,0,0,1,7.12-2.13,11.14,11.14,0,0,1,8.31,3.07,11.51,11.51,0,0,1,3,8.43v25h3.9v1.3H65.6v-1.3h3.81V39.65c0-2.72-.36-4.59-1.09-5.58s-2-1.51-3.84-1.51a10,10,0,0,0-6.17,2.15,23.33,23.33,0,0,0-5.52,6.87V67.33h3.86v1.29H41.51V67.34h3.86V39.65c0-2.72-.36-4.59-1.09-5.58a4.41,4.41,0,0,0-3.8-1.51,10,10,0,0,0-6.34,2.23,20.9,20.9,0,0,0-5.31,6.79V67.33h3.82v1.3H17.51v-1.3h3.82Z"/></svg>