<svg id="Capa_1" data-name="Capa 1" xmlns="http://www.w3.org/2000/svg" viewBox="0 0 532.18 127.47"><defs><style>.cls-1{fill:#008d8e;}.cls-1,.cls-2{fill-rule:evenodd;}.cls-2,.cls-3{fill:#001b42;}</style></defs><title>Mesa de trabajo 24</title><path class="cls-1" d="M365.82,25.63c11.92,0,21.58,13.08,21.58,29.21s-9.66,29.21-21.58,29.21c-7.8,0-14.64-5.61-18.42-14V39.63c3.78-8.4,10.62-14,18.42-14m-18.64,99.51h7.32v2.33H326.29v-2.33h7.07V23.42h-7V21.09h5.39c1.34,0,15.37,0,15.43,0V34.41a26.48,26.48,0,0,1,9.1-11.35,22.52,22.52,0,0,1,13-4q12.19,0,21.25,10.32A36,36,0,0,1,399.62,54q0,15.74-8.82,25.53T368,89.35A21.25,21.25,0,0,1,356.37,86a29.7,29.7,0,0,1-9.19-9.68Z"/><path class="cls-1" d="M466.71,88.52l41.4-64.75h-16.5q-10,.12-14.47,4.8l-.42.46a13.29,13.29,0,0,0-2.94,6.51,42.83,42.83,0,0,0-.25,5.31H471V21.38h56L486.47,82.79c9.85,1.32,15.77,3.8,20.54,5.17,4.36,1.26,10.54.3,11.87-2.38a8.15,8.15,0,1,1,13.3-6.3c0,14.32-16.85,15.18-27.5,10.84-16.55-6.74-26.59-5.76-38-1.6"/><path class="cls-1" d="M445.52,75.19V52.72c-.58-.06-1.25-.11-1.94-.14s-1.72,0-3,0c-7.68,0-13.4,1.5-17.09,4.47s-5.58,7.57-5.58,13.79q0,7.08,3.08,11a10.46,10.46,0,0,0,8.63,3.88,16.51,16.51,0,0,0,9.21-2.83,18.72,18.72,0,0,0,6.72-7.66m5.27,10.94c-2.42-1.72-3.83-4.42-4.55-7.77a20.39,20.39,0,0,1-9.13,8.24,34.31,34.31,0,0,1-14.51,2.74q-8.33,0-13.76-4.8A15.09,15.09,0,0,1,403.4,72.7q0-10.71,10.76-16.6t30.55-5.88h.81V33.35q0-6.33-3-9.13t-9.76-2.8a17.85,17.85,0,0,0-10,2.77c-2.83,1.8-4.27,3.53-4.33,5.25A8,8,0,1,1,412.27,44a6.76,6.76,0,0,1-2-1.4,7.92,7.92,0,0,1-2.08-5.74q0-7.38,7.07-12.57T433,19.09A33,33,0,0,1,443,20.56a30.91,30.91,0,0,1,8.71,4.35A16.42,16.42,0,0,1,457,30.85c1,2.06,1.48,5.41,1.48,10V74.36c0,3.58.41,6.22,1.24,7.94A6.48,6.48,0,0,0,463.42,86,11,11,0,0,1,450.79,86.13Z"/><path class="cls-2" d="M232.26,23.42h-7.13V21.09h5.66c5.57,0,10.27-.12,15.46-2.32V85h7.05v2.33H225.1V85h7.16Z"/><path class="cls-2" d="M7.11,23.42H0V21.09q10.55,0,21.08,0V33.9A35,35,0,0,1,31.52,22.72a24,24,0,0,1,13.05-3.63q8.4,0,13.9,4.16a17.32,17.32,0,0,1,6.74,11.49c3.33-5.3,6.94-9.24,10.88-11.8a23.57,23.57,0,0,1,13.26-3.85q9.87,0,15.48,5.55c3.78,3.72,5.66,8.76,5.66,15.2V85h7.28v2.33H89.57V85h7.11V35q0-7.37-2-10.07c-1.36-1.8-3.75-2.72-7.16-2.72A19,19,0,0,0,76,26.13Q70.77,30,65.71,38.54V85H72.9v2.33H44.7V85h7.19V35c0-4.91-.66-8.27-2-10.07s-3.72-2.72-7.08-2.72a19.09,19.09,0,0,0-11.82,4q-5.32,4-9.88,12.27V85H28.2v2.33H0V85H7.11Z"/><path class="cls-2" d="M162.8,75.19V52.72c-.58-.06-1.24-.11-1.94-.14s-1.72,0-3,0c-7.69,0-13.4,1.5-17.09,4.47s-5.58,7.57-5.58,13.79q0,7.08,3.08,11a10.46,10.46,0,0,0,8.63,3.88,16.56,16.56,0,0,0,9.21-2.83,18.77,18.77,0,0,0,6.71-7.66m5.28,10.94c-2.42-1.72-3.83-4.42-4.55-7.77a20.45,20.45,0,0,1-9.13,8.24,34.33,34.33,0,0,1-14.52,2.74,20.07,20.07,0,0,1-13.76-4.8,15.13,15.13,0,0,1-5.44-11.84q0-10.71,10.77-16.6T162,50.22h.8V33.35q0-6.33-3-9.13c-2-1.86-5.27-2.8-9.77-2.8a17.9,17.9,0,0,0-10,2.77c-2.82,1.8-4.26,3.53-4.32,5.25A8,8,0,1,1,129.56,44a6.81,6.81,0,0,1-2-1.4,8,8,0,0,1-2.08-5.74q0-7.38,7.08-12.57t17.73-5.19a33,33,0,0,1,9.93,1.47A30.77,30.77,0,0,1,169,24.91a16.46,16.46,0,0,1,5.36,5.94c1,2.06,1.47,5.41,1.47,10V74.36c0,3.58.41,6.22,1.25,7.94A6.44,6.44,0,0,0,180.7,86,11,11,0,0,1,168.08,86.13Z"/><path class="cls-2" d="M299.14,75.19V52.72c-.58-.06-1.25-.11-1.95-.14s-1.72,0-3,0c-7.69,0-13.4,1.5-17.09,4.47s-5.58,7.57-5.58,13.79q0,7.08,3.08,11a10.46,10.46,0,0,0,8.63,3.88,16.51,16.51,0,0,0,9.21-2.83,18.72,18.72,0,0,0,6.72-7.66m5.27,10.94c-2.42-1.72-3.83-4.42-4.55-7.77a20.45,20.45,0,0,1-9.13,8.24,34.31,34.31,0,0,1-14.51,2.74q-8.33,0-13.77-4.8A15.12,15.12,0,0,1,257,72.7Q257,62,267.78,56.1t30.55-5.88h.81V33.35q0-6.33-3-9.13t-9.77-2.8a17.9,17.9,0,0,0-10,2.77c-2.82,1.8-4.26,3.53-4.32,5.25A8,8,0,1,1,265.89,44a6.76,6.76,0,0,1-2-1.4,7.93,7.93,0,0,1-2.09-5.74q0-7.38,7.08-12.57t17.73-5.19a32.93,32.93,0,0,1,9.93,1.47,30.83,30.83,0,0,1,8.72,4.35,16.42,16.42,0,0,1,5.35,5.94c1,2.06,1.47,5.41,1.47,10V74.36c0,3.58.41,6.22,1.25,7.94A6.47,6.47,0,0,0,317,86,11,11,0,0,1,304.41,86.13Z"/><path class="cls-2" d="M185.5,87.35V85h7.12V23.42h-7.08V21.08h21l-.12,9.77C207.6,24.26,213.28,5.12,230,.48a20.56,20.56,0,0,1,11.14.63,12.61,12.61,0,0,1,2.77,1.39,7.6,7.6,0,0,1,3.46,6.65,8.09,8.09,0,0,1-16.13,1,6.93,6.93,0,0,1,.08-2.46,7.57,7.57,0,0,1,.46-1.58c-3.22-2-10.12,1.08-12.95,4.13-6.47,5.59-12.25,24.72-12.25,35.84V85h7.07v2.33Z"/><path class="cls-3" d="M10.39,118.44v8.63H7.31V104h6.74a12.41,12.41,0,0,1,3.77.51,7.28,7.28,0,0,1,2.66,1.44,5.73,5.73,0,0,1,1.57,2.25,8,8,0,0,1,.52,3,7.6,7.6,0,0,1-.56,3,6.36,6.36,0,0,1-1.63,2.3,7.54,7.54,0,0,1-2.67,1.51,11.41,11.41,0,0,1-3.66.54Zm0-2.48h3.66a7,7,0,0,0,2.34-.36,4.68,4.68,0,0,0,1.7-1,4,4,0,0,0,1-1.52,5.13,5.13,0,0,0,.36-2,4.42,4.42,0,0,0-1.35-3.44,5.84,5.84,0,0,0-4.08-1.25H10.39Z"/><path class="cls-3" d="M59.53,127.07H57.14a1,1,0,0,1-.67-.21,1.21,1.21,0,0,1-.38-.53L54,120.76H43.7l-2.14,5.57a1.25,1.25,0,0,1-.38.52,1,1,0,0,1-.67.22H38.12L47.25,104H50.4Zm-15-8.57h8.53l-3.59-9.39a17.78,17.78,0,0,1-.68-2.17c-.12.44-.23.84-.35,1.21s-.22.7-.32,1Z"/><path class="cls-3" d="M88.39,124.8a14.68,14.68,0,0,0,1.7-.09,12.27,12.27,0,0,0,1.46-.26,9.29,9.29,0,0,0,1.29-.43c.41-.17.81-.36,1.22-.57v-5.09H90.52a.66.66,0,0,1-.49-.18.58.58,0,0,1-.18-.43V116h7v8.86a11.87,11.87,0,0,1-3.79,1.88,14.91,14.91,0,0,1-2.27.47,21.44,21.44,0,0,1-2.63.15,11.83,11.83,0,0,1-4.56-.86A10.55,10.55,0,0,1,80,124.05a11,11,0,0,1-2.34-3.73,13.15,13.15,0,0,1-.83-4.78,13.51,13.51,0,0,1,.82-4.82,10.25,10.25,0,0,1,6-6.13,13.08,13.08,0,0,1,4.84-.86,15.15,15.15,0,0,1,2.52.2,12.15,12.15,0,0,1,2.16.58,10.64,10.64,0,0,1,1.85.92,11,11,0,0,1,1.57,1.22l-.87,1.42a.81.81,0,0,1-.7.43,1.11,1.11,0,0,1-.56-.18q-.4-.22-.9-.54a6.36,6.36,0,0,0-1.2-.62,9.48,9.48,0,0,0-1.67-.51,11,11,0,0,0-2.29-.21,9,9,0,0,0-3.49.64,7.34,7.34,0,0,0-2.67,1.82,8.13,8.13,0,0,0-1.69,2.86,11.45,11.45,0,0,0-.59,3.78,11.58,11.58,0,0,0,.62,3.91,8.15,8.15,0,0,0,1.73,2.9A7.35,7.35,0,0,0,85,124.17,8.81,8.81,0,0,0,88.39,124.8Z"/><path class="cls-3" d="M120.28,104.09a1.73,1.73,0,0,1,.45.43L134,121.92c0-.28-.06-.55-.07-.82s0-.51,0-.76V104h2.71v23.08H135a1.29,1.29,0,0,1-.62-.13,1.55,1.55,0,0,1-.48-.43l-13.22-17.38c0,.27,0,.53,0,.79s0,.49,0,.71v16.44h-2.71V104h1.59A1.55,1.55,0,0,1,120.28,104.09Z"/><path class="cls-3" d="M179.86,115.54a13.51,13.51,0,0,1-.81,4.76,10.9,10.9,0,0,1-2.3,3.73,10.18,10.18,0,0,1-3.56,2.42,12.73,12.73,0,0,1-9.2,0,10.23,10.23,0,0,1-3.55-2.42,10.9,10.9,0,0,1-2.3-3.73,14.39,14.39,0,0,1,0-9.52,11,11,0,0,1,2.3-3.74A10.42,10.42,0,0,1,164,104.6a12.6,12.6,0,0,1,9.2,0,10.37,10.37,0,0,1,3.56,2.44,11,11,0,0,1,2.3,3.74A13.47,13.47,0,0,1,179.86,115.54Zm-3.17,0a11.65,11.65,0,0,0-.58-3.82,8.06,8.06,0,0,0-1.62-2.86,7.1,7.1,0,0,0-2.55-1.79,9.2,9.2,0,0,0-6.69,0,7.1,7.1,0,0,0-2.55,1.79,8,8,0,0,0-1.64,2.86,13.05,13.05,0,0,0,0,7.63,8,8,0,0,0,1.64,2.85,7.1,7.1,0,0,0,2.55,1.79,9.33,9.33,0,0,0,6.69,0,7.1,7.1,0,0,0,2.55-1.79,8.1,8.1,0,0,0,1.62-2.85A11.55,11.55,0,0,0,176.69,115.54Z"/><path class="cls-3" d="M212.25,107.6a1.26,1.26,0,0,1-.31.36.65.65,0,0,1-.41.12,1.11,1.11,0,0,1-.63-.27,10.14,10.14,0,0,0-.91-.61,7.42,7.42,0,0,0-1.32-.6,5.75,5.75,0,0,0-1.88-.27,5.41,5.41,0,0,0-1.83.28,3.9,3.9,0,0,0-1.33.76,3.14,3.14,0,0,0-.81,1.14,3.62,3.62,0,0,0-.27,1.41,2.64,2.64,0,0,0,.47,1.6,4.17,4.17,0,0,0,1.25,1.09,9.42,9.42,0,0,0,1.75.78l2,.68c.69.24,1.36.51,2,.8a7.17,7.17,0,0,1,1.75,1.12,5.08,5.08,0,0,1,1.25,1.66,5.61,5.61,0,0,1,.47,2.42,7.9,7.9,0,0,1-.51,2.84,6.7,6.7,0,0,1-1.49,2.31,7.2,7.2,0,0,1-2.41,1.55,8.93,8.93,0,0,1-3.25.56,9.88,9.88,0,0,1-4-.81,9.62,9.62,0,0,1-3.12-2.2l.9-1.48a1,1,0,0,1,.31-.3.7.7,0,0,1,.4-.12,1.27,1.27,0,0,1,.77.36,12.18,12.18,0,0,0,1.08.8,8.09,8.09,0,0,0,1.56.79,6.67,6.67,0,0,0,4.2.06,4.15,4.15,0,0,0,1.46-.86,3.78,3.78,0,0,0,.92-1.33,4.54,4.54,0,0,0,.31-1.72,2.89,2.89,0,0,0-.47-1.72,3.92,3.92,0,0,0-1.23-1.12,8.54,8.54,0,0,0-1.75-.76l-2-.65a21.23,21.23,0,0,1-2-.76,6.6,6.6,0,0,1-1.74-1.13,5.29,5.29,0,0,1-1.24-1.73,6.72,6.72,0,0,1,0-4.94,6.17,6.17,0,0,1,1.37-2,6.68,6.68,0,0,1,2.2-1.42,8.15,8.15,0,0,1,3-.53,9.55,9.55,0,0,1,3.49.62,7.87,7.87,0,0,1,2.76,1.77Z"/><path class="cls-3" d="M245.61,107.6a1.26,1.26,0,0,1-.31.36.65.65,0,0,1-.41.12,1.11,1.11,0,0,1-.63-.27,10.14,10.14,0,0,0-.91-.61,7.42,7.42,0,0,0-1.32-.6,5.75,5.75,0,0,0-1.88-.27,5.41,5.41,0,0,0-1.83.28,3.9,3.9,0,0,0-1.33.76,3.14,3.14,0,0,0-.81,1.14,3.62,3.62,0,0,0-.27,1.41,2.64,2.64,0,0,0,.47,1.6,4.17,4.17,0,0,0,1.25,1.09,9.42,9.42,0,0,0,1.75.78l2,.68c.68.24,1.35.51,2,.8a7.17,7.17,0,0,1,1.75,1.12,5.08,5.08,0,0,1,1.25,1.66,5.61,5.61,0,0,1,.47,2.42,7.9,7.9,0,0,1-.51,2.84,6.7,6.7,0,0,1-1.49,2.31,7.2,7.2,0,0,1-2.41,1.55,8.93,8.93,0,0,1-3.25.56,9.85,9.85,0,0,1-4-.81,9.62,9.62,0,0,1-3.12-2.2l.9-1.48a1,1,0,0,1,.31-.3.7.7,0,0,1,.4-.12,1.27,1.27,0,0,1,.77.36c.29.24.64.51,1.07.8a8.5,8.5,0,0,0,1.57.79,6.67,6.67,0,0,0,4.2.06,4.15,4.15,0,0,0,1.46-.86,3.78,3.78,0,0,0,.92-1.33,4.54,4.54,0,0,0,.31-1.72,2.89,2.89,0,0,0-.47-1.72,3.92,3.92,0,0,0-1.23-1.12,8.54,8.54,0,0,0-1.75-.76l-2-.65a21.23,21.23,0,0,1-2-.76,6.6,6.6,0,0,1-1.74-1.13,5.15,5.15,0,0,1-1.24-1.73,6.72,6.72,0,0,1,0-4.94,6.14,6.14,0,0,1,1.36-2,6.83,6.83,0,0,1,2.21-1.42,8.15,8.15,0,0,1,3-.53,9.55,9.55,0,0,1,3.49.62,7.87,7.87,0,0,1,2.76,1.77Z"/><path class="cls-3" d="M270.93,127.07h-3.09V104h3.09Z"/><path class="cls-3" d="M295.72,104.09a1.73,1.73,0,0,1,.45.43l13.24,17.4a7.78,7.78,0,0,1-.07-.82c0-.26,0-.51,0-.76V104H312v23.08h-1.57a1.28,1.28,0,0,1-.61-.13,1.57,1.57,0,0,1-.49-.43l-13.21-17.38c0,.27,0,.53,0,.79s0,.49,0,.71v16.44h-2.71V104h1.59A1.59,1.59,0,0,1,295.72,104.09Z"/></svg>