<svg id="Capa_1" data-name="Capa 1" xmlns="http://www.w3.org/2000/svg" viewBox="0 0 65.83 65.83"><defs><style>.cls-1{fill:#fff8e9;}</style></defs><title>Mesa de trabajo 16 copia 2</title><circle class="cls-1" cx="54.99" cy="10.99" r="1.11"/><circle class="cls-1" cx="48.34" cy="10.99" r="1.11"/><circle class="cls-1" cx="41.69" cy="10.99" r="1.11"/><circle class="cls-1" cx="35.05" cy="40.46" r="1.11"/><circle class="cls-1" cx="35.05" cy="47.1" r="1.11"/><circle class="cls-1" cx="35.05" cy="53.75" r="1.11"/><path class="cls-1" d="M57.87,5.12H7.8A3.33,3.33,0,0,0,4.47,8.44V58.51A3.33,3.33,0,0,0,7.8,61.83H57.87a3.32,3.32,0,0,0,3.32-3.32V8.44A3.32,3.32,0,0,0,57.87,5.12ZM59,58.51a1.11,1.11,0,0,1-1.11,1.11H7.8a1.11,1.11,0,0,1-1.11-1.11V16.86H59Zm0-43.87H6.69V8.44A1.11,1.11,0,0,1,7.8,7.33H57.87A1.11,1.11,0,0,1,59,8.44Z"/><path class="cls-1" d="M52.77,21.29H12.6l0,0h0l-.06,0,0,0-.05,0,0,0,0,0,0,0,0,0,0,.05,0,0,0,.05,0,0a.1.1,0,0,1,0,.05l0,0,0,.05,0,0s0,0,0,.05,0,0,0,.05,0,0,0,0a.64.64,0,0,1,0,.07h0v0a.64.64,0,0,0,0,.07v.05a.11.11,0,0,0,0,.05V33.48a1.1,1.1,0,0,0,1.1,1.1h40l.08,0h0l.07,0h0l.07,0h0l.08,0h0a.1.1,0,0,1,.05,0l0,0,.05,0,0,0,0,0h0a1.83,1.83,0,0,0,.13-.16v0a.43.43,0,0,0,0-.07l0,0,0,0,0,0s0,0,0,0a.43.43,0,0,1,0-.05v0s0,0,0-.06a.43.43,0,0,1,0,0v-.06a.13.13,0,0,0,0-.06V22.4A1.11,1.11,0,0,0,52.77,21.29ZM14,32.37V23.86l30.65,8.51ZM51.66,32,21,23.51H51.66Z"/><path class="cls-1" d="M28.4,39.35H12.58l-.05,0,0,0-.05,0,0,0,0,0-.05,0,0,0-.05,0s0,0,0,0l0,0,0,.05,0,0h0l0,0,0,0,0,.05,0,0,0,0,0,.05s0,0,0,0,0,0,0,0l0,.05s0,0,0,.06,0,0,0,0,0,0,0,.07v.11h0V53.75a1.11,1.11,0,0,0,1.1,1.11H28.52l.11,0h0l.09,0h0l.08,0,0,0,.06,0,0,0,.05,0,0,0,.05,0,0,0,0-.06,0,0h0l0-.05,0,0,0,0,0,0,0-.05,0,0s0,0,0,0,0,0,0-.05v0s0,0,0-.06v0a.13.13,0,0,0,0-.06s0,0,0,0v-.07h0V40.46A1.11,1.11,0,0,0,28.4,39.35ZM14,52.64V42.86l11.41,9.78Zm13.29-1.3-11.4-9.78h11.4Z"/><path class="cls-1" d="M52.77,39.35H39.48a1.11,1.11,0,1,0,0,2.21H52.77a1.11,1.11,0,1,0,0-2.21Z"/><path class="cls-1" d="M52.77,46H39.48a1.11,1.11,0,0,0,0,2.22H52.77a1.11,1.11,0,0,0,0-2.22Z"/><path class="cls-1" d="M52.77,52.64H39.48a1.11,1.11,0,1,0,0,2.22H52.77a1.11,1.11,0,1,0,0-2.22Z"/></svg>