<svg id="Capa_1" data-name="Capa 1" xmlns="http://www.w3.org/2000/svg" viewBox="0 0 65.83 65.83"><defs><style>.cls-1{fill:#fff8e9;}</style></defs><title>sobremi-iconoweb</title><circle class="cls-1" cx="55.55" cy="14.14" r="1.29"/><circle class="cls-1" cx="10.29" cy="14.14" r="1.29"/><path class="cls-1" d="M64.55,28.29H63a29.26,29.26,0,0,0-3.46-10.51,1.29,1.29,0,1,0-2.23,1.28,26.8,26.8,0,0,1,3.1,9.23h-1a1.28,1.28,0,0,0-1.29,1.28v5.15A1.28,1.28,0,0,0,59.41,36h5.14a1.28,1.28,0,0,0,1.28-1.28V29.57A1.28,1.28,0,0,0,64.55,28.29Zm-1.29,5.14H60.69V30.86h2.57Z"/><path class="cls-1" d="M47.06,37.63v-.06a.25.25,0,0,1,0-.08.11.11,0,0,1,0-.05s0-.07,0-.1v0s0-.08,0-.11v0a.34.34,0,0,0-.06-.12L34.06,13.56a1.28,1.28,0,0,0-2.27,0L18.93,37.06l-.06.12v0a.36.36,0,0,0,0,.11v0a.3.3,0,0,0,0,.1.07.07,0,0,0,0,.05.19.19,0,0,0,0,.08v.06a.43.43,0,0,0,0,0v0s0,0,0,.06v.08a.07.07,0,0,1,0,0s0,.06,0,.08V38l0,.08v0l4.63,12.29A3.84,3.84,0,0,0,22,51.8a3.84,3.84,0,0,0,2,5.71v7a1.28,1.28,0,0,0,1.28,1.28H40.63a1.28,1.28,0,0,0,1.29-1.28v-7a4,4,0,0,0,1.81-1.34,3.82,3.82,0,0,0,.71-1.67,3.87,3.87,0,0,0-2.1-4.09L47,38.13v0A.19.19,0,0,0,47,38L47,38s0,0,0-.08a.11.11,0,0,0,0,0s0-.05,0-.08v-.13ZM32.92,36.38a1.29,1.29,0,1,1-1.29,1.29A1.28,1.28,0,0,1,32.92,36.38Zm6.43,26.88H26.49V57.73H39.35Zm1.27-8.1H25.18A1.26,1.26,0,0,1,24,54.43a1.29,1.29,0,0,1,.56-1.68,1.22,1.22,0,0,1,.62-.16H40.67a1.17,1.17,0,0,1,1.07.6A1.32,1.32,0,0,1,41.25,55,1.25,1.25,0,0,1,40.62,55.16ZM39.74,50H26.09L21.92,39h3.24a1.31,1.31,0,0,0,1.31-1.09,1.28,1.28,0,0,0-1.27-1.48h-3l9.4-17.21V34a3.86,3.86,0,1,0,2.57,0V19.18l9.41,17.21H40.67a1.31,1.31,0,0,0-1.31,1.09A1.29,1.29,0,0,0,40.63,39h3.29Z"/><path class="cls-1" d="M8.52,19.06a1.31,1.31,0,0,0-.32-1.67,1.29,1.29,0,0,0-1.91.39A29.28,29.28,0,0,0,2.82,28.29H1.29A1.28,1.28,0,0,0,0,29.57v5.15A1.28,1.28,0,0,0,1.29,36H6.43a1.28,1.28,0,0,0,1.29-1.28V29.57a1.28,1.28,0,0,0-1.29-1.28h-1A26.59,26.59,0,0,1,8.52,19.06ZM5.14,33.43H2.57V30.86H5.14Z"/><path class="cls-1" d="M62,0a3.87,3.87,0,0,0-3.64,2.57H36.77V1.29A1.28,1.28,0,0,0,35.49,0H30.35a1.29,1.29,0,0,0-1.29,1.29V2.57H7.49a3.87,3.87,0,1,0,0,2.57H20.42a29,29,0,0,0-7.3,4.36,1.31,1.31,0,0,0-.31,1.65,1.27,1.27,0,0,0,1.11.64,1.23,1.23,0,0,0,.83-.3A28.93,28.93,0,0,1,29.06,5.42v1a1.29,1.29,0,0,0,1.29,1.29h5.14a1.28,1.28,0,0,0,1.28-1.29v-1a28.89,28.89,0,0,1,14.31,6.07,1.27,1.27,0,0,0,.83.3,1.28,1.28,0,0,0,.83-2.26,28.31,28.31,0,0,0-7.33-4.39H58.34A3.86,3.86,0,1,0,62,0ZM3.86,5.14a1.29,1.29,0,1,1,0-2.57,1.29,1.29,0,0,1,0,2.57ZM34.2,3.86V5.14H31.63V2.57H34.2ZM62,5.14a1.29,1.29,0,1,1,0-2.57,1.29,1.29,0,0,1,0,2.57Z"/></svg>