<svg id="Capa_1" data-name="Capa 1" xmlns="http://www.w3.org/2000/svg" viewBox="0 0 65.83 65.83"><defs><style>.cls-1{fill:#fff8e9;}</style></defs><title>sobremi-iconodiseno</title><circle class="cls-1" cx="32.93" cy="44.95" r="1.29"/><path class="cls-1" d="M19,14.31a1.29,1.29,0,0,0-1.7-.66l-5.54,2.47a1.28,1.28,0,0,0,.52,2.46,1.23,1.23,0,0,0,.53-.11L18.37,16A1.29,1.29,0,0,0,19,14.31Z"/><path class="cls-1" d="M54.08,16.12l-5.54-2.47a1.29,1.29,0,0,0-1,2.36L53,18.47a1.22,1.22,0,0,0,.52.11,1.29,1.29,0,0,0,.53-2.46Z"/><path class="cls-1" d="M65.15,37.06a1.38,1.38,0,0,0-.26-.64L57.17,26.13s0,0-.05-.05l0,0a.63.63,0,0,0-.11-.12h0a.47.47,0,0,0-.12-.09l0,0-.15-.08h0l-15-6.67a11.51,11.51,0,0,0,2.87-7.63,11.6,11.6,0,1,0-20.34,7.63l-15,6.67h0l-.15.08,0,0a.47.47,0,0,0-.12.09h0a.63.63,0,0,0-.11.12l0,0-.05.05L1,36.42a1.28,1.28,0,0,0,.49,2l7,3.1V54.23a1.3,1.3,0,0,0,.76,1.18L32.41,65.72h0l.11,0h0l.12,0h0a1.83,1.83,0,0,0,.54,0h0l.12,0h0l.11,0h0L56.66,55.41a1.3,1.3,0,0,0,.76-1.18V41.49l7-3.1A1.29,1.29,0,0,0,65.15,37.06ZM24,10a9.08,9.08,0,0,1,7.87-7.51,9,9,0,0,1,6.69,16l-.25.19c-.2.15-.39.33-.56.44H34.22V14.55l2.2-2.2a1.29,1.29,0,1,0-1.82-1.83l-1.67,1.67-1.67-1.67a1.29,1.29,0,1,0-1.82,1.83l2.2,2.2v4.67H28.09a2.56,2.56,0,0,0-.57-.57l-.24-.19A9,9,0,0,1,24,10Zm6.33,14.4a1.33,1.33,0,0,1-.92-.38,1.26,1.26,0,0,1-.37-.9V21.8H36.8v1.29a1.26,1.26,0,0,1-.38.92,1.34,1.34,0,0,1-.91.37ZM35.51,27a2.58,2.58,0,0,1-3.28,2.48,2.24,2.24,0,0,1-.6-.25A2.6,2.6,0,0,1,30.35,27Zm-9.27-6a.78.78,0,0,1,.11.18,1.25,1.25,0,0,1,.13.57V23a3.93,3.93,0,0,0,1.29,2.88v1a5.08,5.08,0,0,0,.88,2.9,5.2,5.2,0,0,0,5.83,2.06,5.43,5.43,0,0,0,3.61-4.9v-1A3.88,3.88,0,0,0,39.38,23V21.73a1.22,1.22,0,0,1,.13-.57.78.78,0,0,1,.11-.18L53,26.9l-20,8.91-20-8.91ZM4,36.7l6.15-8.2,20.79,9.24-6.15,8.19ZM54.84,53.4,34.22,62.56V50.15a1.32,1.32,0,0,0-1.1-1.32,1.29,1.29,0,0,0-1.48,1.28V62.56L11,53.4V42.64l13.65,6.07a1.3,1.3,0,0,0,1.56-.41l6.7-8.93,6.7,8.93a1.28,1.28,0,0,0,1,.52,1.39,1.39,0,0,0,.52-.11l13.65-6.07ZM41.08,45.93l-6.15-8.19L55.72,28.5l6.15,8.2Z"/><path class="cls-1" d="M18.37,5.16,12.83,2.69a1.29,1.29,0,1,0-1.05,2.36l5.54,2.46a1.22,1.22,0,0,0,.52.11,1.29,1.29,0,0,0,.53-2.46Z"/><path class="cls-1" d="M54.73,3.35A1.3,1.3,0,0,0,53,2.69L47.49,5.16A1.29,1.29,0,0,0,48,7.62a1.22,1.22,0,0,0,.52-.11l5.54-2.46A1.29,1.29,0,0,0,54.73,3.35Z"/></svg>